<?xml version="1.0" encoding="utf-8"?>
<!-- Generator: Adobe Illustrator 27.0.1, SVG Export Plug-In . SVG Version: 6.00 Build 0)  -->
<svg version="1.1" id="Layer_1" xmlns="http://www.w3.org/2000/svg" xmlns:xlink="http://www.w3.org/1999/xlink" x="0px" y="0px"
	 viewBox="0 0 1548.1 1657.2" style="enable-background:new 0 0 1548.1 1657.2;" xml:space="preserve">
<style type="text/css">
	.st0{fill:#FFFFFF;}
</style>
<g>
	<path class="st0" d="M568.8,268.2c1.2-16.4,7.2-30.4,19.5-41.7c9.6-8.8,18.5-18.5,30.2-24.7c2.4-1.3,3.7-3.3,4.6-5.8
		c3.5-9.8,8-18.9,17.5-24.4c1.9-1.1,3-3,3.5-5.1c1.1-4.6,5.8-7.3,5.6-12.7c-0.1-2,3.3-3.6,5.5-3.5c4.2,0.2,5.2-2.5,5.8-5.5
		c0.9-4.3,0.6-8-1.7-12.5c-4.7-9.3-6.9-19.7-5.6-30.4c0.4-3.5,1.2-7,0.7-10.4c-0.6-4,1.1-6.4,4.2-7.9c3.8-1.9,5.1-5,5.7-8.9
		c2.9-17.6,11.5-30.7,27.9-39.3c6.8-3.6,13.9-4.1,20.8-6.2c4.3-1.3,8.8,0.1,12.7,2.5c2.4,1.4,4.9,2.8,7.8,2.5
		c18.4-1.9,27.9,10.1,36.1,23.7c3.7,6.2,5.9,13.2,7.5,20.2c1.3,5.6,0.8,50-2.6,51.5c-5.8,2.6-7.6,7.6-9.7,12.7
		c-3.9,9.2-9.3,17.7-11.4,27.7c-0.9,4.4-4.2,7.1-8.3,8.9c-3.8,1.7-7.7,3.4-11.5,5.1c-4.8,2.1-5,2.8-1.4,6.8c2.2,2.4,4.8,4.4,7.1,6.7
		c6.3,6.1,5.9,8.7,0.6,15.7c-4.3,5.7-6,13.6-3.4,19.7c8.7,20.2,14.3,42,29,59.3c3.3,3.9,6.1,8.3,9.7,11.9
		c8.5,8.5,10.6,18.9,9.2,30.2c-1.6,13-2,26-1.6,39c0.2,6.8,0.7,7,7.4,6.3c5.3-0.5,20.2-3.9,21.4-1.3c1.9,4.1,5.7,5.2,9.5,6.4
		c5.1,1.6,10.2,3.3,14.9,5.9c5,2.7,8.7,6.3,9.4,12.2c0.3,2.4,1.3,4.4,3.2,5.5c-0.3,2.3-1.9,2.2-3,2.9c-11.2,6.7-13.2,21.8-3.4,29.3
		c11.5,8.8,21.1,19.9,33.6,27.2c14,8.2,27.9,16.7,42.3,24.3c11.9,6.3,23.3,13.6,35.6,19.1c3,1.4,6.2,2,9.4,2.5
		c1.7,0.3,3.9,0.4,4.6-0.8c3-5.8,9.3-7.5,13.9-11c8.6-6.6,14-16.2,22.3-23c7.5-6.2,15.8-10.9,24.9-13.7c12.4-3.7,24.1-8.1,33.6-17.5
		c5.5-5.4,12.3-9.2,20.2-10.5c1.8-0.3,3.8-0.8,5.2-1.9c12.2-9.9,27.9-12.8,40.9-20.8c10.2-6.3,22-8.8,32.4-14.5
		c7.9-4.3,15.7-8.9,23.4-13.6c4.2-2.6,8.6-4.6,13.4-5.9c3.9-1,7.4-2.6,10.7-5c7.1-5.1,15.1-5.9,23.3-4.1c5.5,1.2,10.7,2.5,16.4,0.8
		c3.5-1.1,7.4-0.3,11,0.6c4.1,1.1,7.9,0.5,10.6-3.3c2.1-2.9,5.2-3.7,8.6-3.5c4.7,0.3,9.3,0.1,13.9-0.9c3.7-0.8,7.5-0.8,11,0.7
		c3.8,1.7,7.3,0.8,10.6-1.1c7.7-4.6,16.1-5.8,24.9-5.1c5.6,0.4,11.2-0.1,16.7-0.9c4.1-0.6,7.4,0.1,10,3.3c4.3,5.3,9.9,6.2,16.3,5.9
		c8.3-0.5,16.7-1.1,25,1.1c3.1,0.8,4.9-1.1,6-3.6c1.8-4,3.4-8.2,5.2-12.2c4.3-10,11.2-17.7,20.7-22.8c4.5-2.4,8.9-2,11.7,0.8
		c3.2,3.2,2.2,6.8,0.7,10.4c-6.4,14.5-4.4,29,0.3,43.4c0.7,2.2,2.2,3.5,4.8,2.8c7.8-2.1,15.9-2.9,22-9.5c4.9-5.4,11.4-8.6,18.3-11.3
		c7.6-3,14.2-0.7,20.6,2.7c4.6,2.4,5.4,7.1,1.3,10.2c-12,9.2-13.4,23.6-17.7,36.2c-2.3,7,2.8,14.4,8.4,19.6
		c6.4,5.9,7.8,13.8,9.2,21.3c0.8,4.5-0.9,9.6-0.3,14.5c2.2,17,2,33.9-1.1,50.7c-0.5,2.7-0.2,5.7-4.2,6.1c-2.4,0.2-2.8,2.5-2.8,4.2
		c-0.1,14.5-6,28.2-5.8,42.7c0.1,5.6-3.2,10.1-4.8,15.2c-3.3,10.4-3.2,21.1-5,31.6c-2.4,14.1-0.8,28.3,0.1,42.4
		c0.4,6.2,1.5,12.5,2.8,18.6c2.2,10.4,1.1,20.9,1.4,31.3c0.1,3.9-3.8,29.5-5.8,39c-3.1,14.5-3.8,29.5-6.9,44
		c-2.6,12-9.4,19.6-21.4,22.1c-9.5,1.9-17.3,5.5-23.2,13.9c-5,7.2-13.1,9.1-21.8,7.9c-5.2-0.7-10.8,0-15.2-4
		c-1.2-1.1-3.2-1.9-3.6-3.2c-2-6.7-8-7.9-13.4-9.9c-4.7-1.7-8.4-4.3-12.2-7.6c-3.6-3.1-8.4-5.6-12.9-7.1c-5.7-1.9-11.7-3.8-18.2-2.6
		c-6.5,1.2-12.7-0.1-19-2.6c-10.1-4-19.5-9.8-30.1-12.6c-1.3-0.4-3-0.7-3.5-2c-2-5.4-7-6.4-11.3-8.6c-23.7-11.8-47.5-23.6-71.3-35.4
		c-1.3-0.6-2.5-1.3-3.8-1.9c-5.1-2.1-6.9-1.7-9.6,3.3c-6.8,12.5-13.5,25-19.9,37.7c-3,6-7.3,11.4-8.6,18.2
		c-2.1,11.1-1.3,22.2-0.6,33.4c1,16,4.4,31.7,6.1,47.7c1.3,12.4-1.5,24.6-5.4,36.3c-3.7,11-8.1,21.8-13,32.4
		c-3.8,8.1-8.8,15.3-14.6,22c-1.8,2.1-3.7,4.3-4.5,7c-5.7,17.8-17.4,31.1-32,42c-4.7,3.5-5.7,5.8-2.7,10.5
		c13.6,21,21.4,44.9,34.1,66.4c4.3,7.2,8.1,14.6,13.2,21.3c1.9,2.6,3.6,5.6,4.4,8.7c3.5,12.9,11.2,23.4,19,33.8
		c10.9,14.5,20.1,30.1,29.8,45.4c3.7,5.8,6.2,12,8.3,18.4c2.4,7.1,5.4,13.8,9.5,20.2c4.4,6.9,6.8,14.8,9.5,22.5
		c1.7,5-0.9,9.6-1.2,14.5c-0.2,3-1.1,5.9-2,8.8c-2.5,8.6-1.2,17.2,0.7,25.4c3,13.6,5.6,27.2,8.5,40.8c2,9.6,4.4,19.1,7.5,28.3
		c4.5,13.2,7,27,10.5,40.4c1.3,5,3.9,9.4,5.2,14.4c0.8,3.1,1.3,5.9,0.2,8.8c-3.1,8.6-2.3,17.2-0.3,26c2.7,11.5,6.3,22.6,10.5,33.6
		c4.2,11,5.1,22.6,2.4,34.2c-0.7,2.9-0.4,5.5,0.5,8.1c3.7,10.5,4.9,21.8,9.6,32c0.1,0.2,0.2,0.4,0.2,0.7c2.1,16.6-1.2,19.3-15.6,18
		c-12.5-1.2-23.8-6.1-33.6-14.2c-10-8.3-20.1-16.6-30.3-24.7c-6.3-5-10.7-11.6-16.3-17.2c-2-2-2.6-4.6-1.5-7.1
		c2.2-5.4,3.1-11,3.6-16.8c0.8-8.9,7.3-14.1,13-19.8c1.3-1.3,2.9-2.4,4.1-3.8c3.6-3.8,2.9-7.4-2-8.9c-5.1-1.5-7.6-4.2-8.2-9.7
		c-0.4-3.6-3.4-6.6-5.7-9.4c-4.1-5-5.8-10.5-5.3-16.8c0.8-12.5-1.4-25-1.5-37.5c0-1.6-0.5-3.4,0-4.8c2.1-6.8,0.5-13.2-1.4-19.7
		c-1-3.4-1.6-6.8-1.4-10.4c1-12.2-1.1-24.1-3.6-35.9c-2.1-9.7-3.8-19.5-6.7-29.1c-2.3-7.4-1.7-15.6-4.2-23.1
		c-1.6-4.9-3.6-9.5-6.3-13.9c-6.8-11.1-13.5-22.3-20.3-33.4c-7.2-11.9-17-21.6-27.3-30.6c-13.9-12.3-28.9-23.4-43.2-35.3
		c-5.9-4.9-10.9-10.8-16.4-16.1c-12.3-12-23.3-25.3-36.6-36.2c-11.1-9.1-24.1-15-36.3-22.2c-3-1.8-5.9-3.5-8.6-5.8
		c-5.1-4.3-7.9-4.3-13.5-0.6c-3,2-5.8,4.5-6.9,7.7c-3.3,10.1-10.7,18-14.7,27.7c-0.4,1.1-1.2,2-1.6,3.1
		c-10.4,27.9-24.7,54.2-34.2,82.4c-5.8,17.4-11.5,34.8-16.2,52.5c-2.4,9.2-4.4,18.5-8.2,27.3c-0.9,2.1-1.5,4.4-1.3,6.8
		c1.3,15.1-5.6,27.5-13.7,39.4c-1.3,1.9-2.8,3.7-4.2,5.6c-3.6,4.5-6.7,9.2-8.4,15c-1.5,5-5.2,9.4-7,14.3c-6.6,17.8-12,36-15.9,54.6
		c-1.1,5.2-2.2,10.4-3.2,15.7c-0.5,2.8-1.2,5.7-0.3,8.3c1.6,4.9,1.9,9.5-0.4,14.2c-0.4,0.7-0.8,1.4-0.3,2.5c4.1,8,2.6,16.9,4.3,25.3
		c0.7,3.7,1.9,7.2,3.5,10.5c1.6,3.3,3.1,6.3,3.4,10.3c0.2,3.6,3.7,7.3,6.3,10.5c6.5,7.6,13,15.2,20.3,22.1c2.3,2.2,3.9,4.7,4.3,7.8
		c1,9.2,7.1,15.3,13,21.4c2.2,2.3,5.1,4.2,6.4,7.2c3.8,8.6,9.7,15.8,15.1,23.3c1.6,2.2,4,4.4,2.2,7.5c-1.9,3.4-5.4,4.6-9,4.3
		c-3.9-0.3-7.8-1.3-11.7-1.9c-13.8-2-27.2-6-40.6-9.7c-10.6-2.9-21.5-2.7-32.1-4.8c-3.2-0.6-6.4-1-9.6-1.7c-3-0.6-6.4-1.8-7.7-4.4
		c-4.7-9.1-11.1-17.7-9.7-28.9c0.4-2.9,1.8-5.2,3.4-7.5c2-2.9,3.7-5.7,4.2-9.4c0.9-6.6-1.2-11.3-7.8-14c-3.6-1.5-4.6-5.3-7.2-7.2
		c-2.6-1.8-6.9,0-9.8-2.5c-2.9-2.4-5.4-5.2-6.2-9c-0.2-1.1,0.1-2.6-0.5-3.4c-5.7-7.9-5.2-16.9-5.8-26c-0.6-9.4,1.2-17.8,6.1-25.8
		c2.9-4.7,5.6-9.5,6.9-15.1c0.9-4,2.6-7.9,4.2-11.8c3.8-9.5,7.5-19,8.7-29.2c0.4-3.7,2.1-7.4,4.4-10.2c6.4-7.7,8.2-17.2,10.1-26.4
		c1.4-6.9,3.5-13.5,5.5-20.2c3-9.9,4.4-19.9,3.7-30.3c-0.7-10.2-0.1-20.4-1.6-30.6c-1.6-10.4,1.6-20.5,4.6-30.1
		c3.6-11.6,5.1-23.6,7.8-35.4c5.3-23.6,7.6-47.7,10.1-71.7c1.1-11.1,3.8-22,4.6-33.1c1.1-15.6,6-30.5,7.5-45.9
		c1.4-14.4,2.2-13.5-11.4-15.6c-10.8-1.7-21.4-4.6-31-10.2c-7.4-4.4-16-4.7-24.2-6.1c-4-0.7-7.7-1.7-11.3-3.3
		c-1.9-0.8-3.8-1.8-5.8-2.3c-8.7-1.8-10.2-0.3-11.1,8.5c-0.6,5.8-1.7,11.5-3.2,17.1c-2.7,10.4-3.9,20.9-4.8,31.5
		c-0.4,4.7-2.1,9.1-3.2,13.5c-3.5,13.8-3.7,28.1-6.8,41.9c-1.9,8.4-3.5,16.8-5.1,25.3c-2,11.2-3.9,22.3-4.8,33.7
		c-1.2,16-2.8,31.9-4.3,47.8c-0.2,1.8-0.7,3.7-1.3,5.4c-0.5,1.5-1,3.2-3.1,3.2c-2.5,0-3.1-1.9-3.4-3.7c-0.4-2.5-0.6-5.1-0.5-7.6
		c0.2-11.2,2.9-22.1,3.4-33.3c0.4-7.8,0.9-15.7,2-23.5c0.7-5,0.9-10.3,2.1-15.2c2.8-12.3,3-24.8,5.1-37.2c0.6-3.7,2.2-7.1,2.8-10.8
		c3.7-22,9.1-43.6,13-65.5c1.4-8,2.4-16.1,3.9-24c1.4-7.5,0.2-8.3-7.2-8.8c-14.8-1-29.5-3.5-44.1-6.1c-5.5-1-11-2-16.4-3.4
		c-5.4-1.4-10.8-1.3-16.5-0.7c-14.1,1.3-28.3,0.9-42.3-2.2c-4.7-1.1-8.9-2.6-11.1-7.5c-0.6-1.3-1.5-2.2-3.1-2.6
		c-4.5-1.1-8.9-2.7-13.4-3.7c-5.1-1.1-7.2,0.5-8.3,5.6c-3.9,18.4-7.9,36.8-11.8,55.2c-0.3,1.4-0.4,2.7-0.6,4.1
		c-0.8,8.8-2,17.4-4.1,26c-2.9,11.7-3.6,23.9-7.2,35.4c-1.1,3.5-2.1,7.1-3.5,10.6c-1.9,4.7-7,6.5-11.5,4.2c-3-1.5-3.7-5.4-1.5-9.8
		c7.9-15.4,10.2-32.3,13.6-48.8c1.9-9.6,5.4-18.7,7.1-28.4c2-10.9,4.3-21.8,6.7-32.7c1.5-6.8,3.8-13.4,4.5-20.4
		c0.6-6.2,0.2-7.2-5.2-9.8c-1.3-0.6-2.5-1.3-3.9-1.5c-11.6-1.8-20.7-9.1-30.9-13.9c-24-11.2-45.3-26.5-67.2-41c-3-2-6.5-2.5-9.8-3.5
		c-2-0.6-3.6,0.4-4.8,2.1c-1.2,1.7-2.5,3.4-3.4,5.3c-3.9,8-11.9,9.9-19.1,13c-1.2,0.5-3,0.8-4.1,0.3c-5.9-2.8-8,0.8-10.5,5.3
		c-4.2,7.6-9.9,14.1-16.5,19.7c-5.5,4.6-10.7,9.7-16.6,13.9c-5.5,3.9-8.7,8.8-9.5,15.4c-0.7,5.6-2.2,10.9-4.1,16.2
		c-2.2,6.2-3.6,12.6-4,19c-0.4,6.2-2,11.9-3.8,17.6c-6.1,18.8-10.1,38.1-12.2,57.8c-0.2,1.8-0.3,3.8-1,5.5
		c-5.4,13-2.3,26.7-2.9,40.1c-0.1,2,0.7,4.1,1.4,6.1c2.2,6,2.2,12.2,2.9,18.5c1.2,11.8,0.4,23.7,3,35.4c1.5,7,2.8,14.2,2.3,21.4
		c-0.7,9.4,2.6,17.8,8.2,24.6c7.7,9.4,11.9,20.5,17,31.1c3.4,7.2,6.7,14.3,11.3,20.9c3.4,4.8,5.8,10.1,7.9,15.6
		c2.5,6.8,5.5,13,10.7,18.5c6.5,6.9,11.2,15.4,18.4,21.8c2.7,2.4,3.8,6.3,4.7,10c2.8,11.3,5.7,22.5,8.4,33.8
		c0.9,3.9,2.2,7.5,4.6,10.9c1.5,2.1,2.6,4.5,2.5,7.1c-0.2,4.4,1.9,7.6,4.8,10.5c0.8,0.8,1.5,1.8,2.4,2.5c9,7.1,12.4,16.2,12.9,27.9
		c0.6,12.9,3.9,25.6,7.5,38.1c1.7,5.8,2.8,11.6,6.2,16.8c3.5,5.4,2.1,11.7,0.8,17.7c-0.4,1.7-1.9,2.6-3.4,3.2
		c-5.9,2.5-11.9,4.1-18.3,2.2c-6-1.7-12.2-3.2-18.2-5.1c-5.1-1.6-10.3-3-15.7-3.3c-10.2-0.5-17.4-7.3-25-12.8c-2.8-2-5-4.5-8.7-5.1
		c-2.7-0.5-5-1.5-4.7-5.5c0.2-3.1-2.1-5.9-3.8-8.6c-2.5-3.7-4.3-7.7-6-11.8c-1.8-4.4-1.7-8.1,2.3-11.2c4-3,5.2-6.7,2.9-11.4
		c-2-4.1-0.3-7.6,2.4-10.9c3.1-3.7,6.2-7.6,9-11.6c1.4-2,2.8-4.5-0.6-6.4c-0.7-0.4-1.5-1.6-1.4-2.3c0.7-4.6-3.5-6.7-4.8-10.2
		c-1.6-4.2-5-6.6-8.1-9.4c-2.1-2-3.4-4.5-3.5-7.4c-0.2-5.2-1.8-10-4-14.7c-1.1-2.3-2-4.8-1.7-7.4c1.7-14.2-4.4-26.8-8.2-39.9
		c-4.4-15.2-12.8-28.3-19.5-42.3c-7.4-15.4-16.6-29.5-26.2-43.6c-3.4-4.9-7.7-8.6-12.2-12.3c-3.4-2.7-5.8-5.8-6.7-10.2
		c-0.8-3.8-2.5-7.5-4.4-11c-2.5-4.7-5.5-9.4-6.3-14.7c-1.2-7.7-5.1-13.7-9.8-19.6c-2.8-3.6-5.7-6.6-10-8.2
		c-5.5-2.1-8.4-6.1-8.5-12.3c-0.1-7.4-3.6-14.5-2.9-22.1c0.1-0.9-0.3-1.9-1.4-2.2c-1-0.3-1.8,0.2-2.4,1c-1.4,2.1-2.9,4.2-4.1,6.5
		c-8.6,16.3-18.2,31.9-30,46.1c-6.1,7.3-7.3,16.3-9.7,25c-5.1,18.9-7.4,38.3-9.1,57.7c-2,22.1-6.5,44.2-4.6,66.5
		c0.8,9.5,0,19.2,1.6,28.5c2.3,13.4,6.1,26.5,17.5,36.1c4.6,3.8,9.3,7.7,13.2,12.3c3.6,4.3,7,8.6,8.1,14.4c0.7,4,3.4,7.1,5.8,10.2
		c4.9,6.2,9,13,13.1,19.8c1.9,3.2,4.5,5.9,7,8.7c4.5,5,3.8,11-1.3,15.2c-3.3,2.7-7,4.6-10.9,6.2c-10.1,4.1-20.2,8.3-30.3,12.6
		c-3.3,1.4-6.5,1.2-9.5-0.1c-9.8-4.1-19.9-7.7-28.3-14.8c-5.5-4.6-11.1-9.1-17.2-13.1c-4.7-3.1-9.2-7-5.9-13.8
		c-3.3-11,3.5-19.7,6.9-29.1c2.1-5.7,2.4-5.8-3.8-7.1c-4.4-0.9-7.6-4.1-8.3-7.6c-1.2-5.7-4.6-7.2-9.2-8.7
		c-13.1-4.3-16.9-11.4-14.1-25.2c0.6-3,0.7-5.8,0.3-8.8c-0.8-7.2-0.4-14.4,0.3-21.6c0.8-7.9-2.3-11.6-8.4-11.8
		c-3.2-0.1-4.9,1.8-6.6,4.7c-3-4.5-5.1-8.2-5.5-13.5c-0.5-6.1-3.2-12-5.1-18c-1-3-2.9-4.5-5.6-1.7c-2.9,3-4.4,1.1-5.8-1.3
		c-0.8-1.4-1.8-2.9-1.9-4.5c-0.3-5.9-2.7-10.9-5.2-16.1c-1.8-3.8-3.4-7.5-7.1-10c-3.7-2.6-4.2-7.1-5.3-11.1
		c-1.9-7.4-3.6-14.8-7.8-21.4c-1.7-2.8-3.8-4.5-6.8-5.5c-9.6-3.5-11.7-6.9-10.4-17.3c0.5-4.4,1.3-8.6,1.2-13.1
		c-0.2-6.8-1.4-13.4-3.7-19.8c-0.9-2.4-1.7-4.8-1.4-7.5c1.1-11.3-0.5-22.8,0.8-34.1c0.3-2.4,0.2-4.6-0.5-6.9c-1-3.4-1-6.9,0.1-10.3
		c2.2-6.8,1.8-13.7,0.9-20.7c-1-8.1,1.3-16.2,0.7-24.3c-1.1-15.3,2.3-30.5,1.1-45.9c-0.6-8.2,0.2-16.9,1.9-25.5
		c2.4-12.2,3.9-24.7,4.1-37.3c0.1-4,0.3-7.9,0.6-11.8c0.5-5.1,0.4-10.1-0.9-15.2c-1.9-7.3-1.2-14.9-1-22.2
		c0.2-10.4,0.9-20.8,2.5-31.1c0.7-4.9,2.1-9.6,3.7-14.2c3.1-8.8,5.1-17.9,7.8-26.7c2.5-8.2,3.4-16.9,4.1-25.4
		c0.7-10,2.6-19.8,4.6-29.6c1.9-9.3,2-19,4.6-28.2c0.9-3.3-0.1-6.4-1-9.6c-1.5-5.6-1.5-11.1,1.3-16.3c6.8-12.5,11.3-26,18.4-38.4
		c7.7-13.5,14.7-27.4,23.5-40.4c4.8-7.1,9.5-14.3,14.5-21.3c5-7.1,10.5-13.6,16.8-19.5c5-4.7,10.2-8.8,16.1-12.1
		c5.5-3,10.7-6.6,15.6-10.6c3.9-3.3,8.4-5.8,13.1-7.9c10.5-4.9,20.7-10.1,29.7-17.7c13.2-11.2,27.6-20.3,44.2-25.8
		c19.3-6.3,37.5-15.1,56.1-23.2c2.8-1.2,5.6-2.3,8.4-3.4c7.8-2.9,15.5-6,22.8-10.3c9.6-5.8,20.9-7.6,31.9-9.6
		c5-0.9,10.1-1.8,15.1-2.5c5.3-0.7,10.7-1,15.9,0.9c8.6,3.1,17.2,3.4,26.5,2.2c9.4-1.2,19-2.4,28.9-1.1c10,1.3,20.3,0.7,30.4-2.1
		c11-3,22.2-4.9,33.3-7.5c7.7-1.8,8.3-2.7,8.3-10.4c0-5.1-0.4-10.1-1.5-15.2c-1.3-6.3-0.2-12.9,0.8-19.3c0.1-0.7,0.3-1.5,0.8-1.9
		c7-6.4,7.2-14.8,7-23.4c-0.1-5.1,3.2-8.7,6.3-12.1c2.4-2.6,5.2-1.2,7.4,0.8c4.1,3.6,6.9,8.2,8.7,13.3c1.3,3.8,3.2,6.7,7.2,7.8
		c3.4,1,4.6,4.4,6.9,6.7c4.6,4.7,6.3,4.7,10.7-0.2c2.4-2.7,4.2-5.6,4.3-9.3c0.1-2.9-0.3-5.3-3.1-7.2c-3.1-2-5.6-4.9-7.6-8.1
		c-3.9-6.4-8.5-12.2-13.5-17.7c-4.9-5.4-4.7-7.8,0.3-13.1c4.7-4.9,9.5-9.7,9-17.4c-1.3-1.1-2.6,0-3.9,0.2c-3.1,0.5-3.6-1.3-3.3-3.8
		c0.1-0.7,0.5-1.3,0.9-1.9c5-8.1,4.1-16.5,1.3-24.9c-5.2-15.6-8.1-31.9-6.5-48.1c1.2-12-0.2-23.5-1.3-35.3c-0.5-5.1-1.3-11.3,1.5-15
		c2.9-3.8,3.6-7.8,5.2-11.7c1.2-2.8,1.2-5.9-0.8-8.7L568.8,268.2z M135.9,1176.8c0,7.1,0,12.5,0,17.8c0,2.2,0.3,4.5,2.8,5
		c2.9,0.6,4.2-1.5,5.1-3.8c0.8-1.9,1.2-4,1.8-6c3.5-10.5,0.4-20.8-1.1-31c-1.2-7.9,0.8-14.6,7-19.3c10.4-7.9,17-18.9,25.7-28.2
		c1.5-1.6,2.7-3.7,3.6-5.9c3-7.3,6.6-14.4,13.6-19c1.5-1,2.7-2,3-4.3c0.8-6.4,3.8-12.2,6.4-17.9c3.4-7.6,7.6-14.9,12.4-21.8
		c3.3-4.8,5.7-10.1,7.3-15.8c4.9-16.7,4.2-32.1-6.9-46.8c-13.9-18.3-24.9-38.7-37.7-57.9c-2.7-4-3.5-8.4-3.2-13.8
		c0.4-6,2.3-14.3-7.2-16.9c-1-0.3-1.9-1.4-2.7-2.2c-7.5-7.2-12.1-16.1-14.7-26c-1.4-5.5-3.5-8-7.4-7.3c-6.5,1.2-12.4,2.3-12.2,9.5
		c0.1,5.4,0.3,10.7,1.9,15.9c0.8,2.6,0.9,4.9,0.2,7.5c-0.7,2.7-0.7,5.5-1.1,8.3c-1.5,9.4-0.7,19-2.3,28.4
		c-1.8,10.5-4.4,20.9-4.1,31.8c0.4,10.7,1,21.3,2.3,31.9c1.1,9.1,1.6,18.9-1.7,26.9c-3.8,9.2,1.1,18-1.9,26.5
		c2.4,12.7,1.2,25.5,1,38.2c-0.2,12.1-1,24.2,1.3,36.1c1.3,6.6,2.6,13.2,4.5,19.6c1.7,6-0.1,12.4,1.8,17.9
		C136.1,1162.5,135.5,1170.5,135.9,1176.8z M1342.4,729.6c0.1-4-2.7-6.5-5.4-8.5c-6.9-5.4-13.6-10.6-22.1-13.8
		c-23.7-9-46.4-20.3-69.4-31c-6.8-3.2-8.2-2.9-11.5,3.8c-5.3,10.7-12,20.5-17.4,31c-3.4,6.5-3.5,7.1,2.9,10.9
		c8,4.8,16.4,8.8,24.3,13.8c20.5,13,42.2,23.5,64.8,32.3c15.4,6,31.6,9.1,47.4,13.8c4.6,1.4,7.2-0.6,7.4-5.5
		c0.5-12.5-5.5-21.9-14.8-29.1c-3.6-2.8-5.6-5.9-6.8-10C1340.8,734.6,1342.4,732.2,1342.4,729.6z M925.8,534.5
		c-2.2-4.2-5.2-6.7-8.2-9.4c-15.3-14-31.7-26.6-46.3-41.4c-5.6-5.7-11.9-10.3-18.9-14.1c-8.8-4.8-17.4-9.8-26.1-14.9
		c-7.4-4.3-15.2-8-20.7-15c-2.3-2.8-5.6-4.5-9.7-4.4c-1.6,10.6,3.4,20.2,3.1,30.4c-0.2,7,0.9,7,8,8.7c0.9,0.2,1.8,0.5,2.7,0.9
		c6.4,2.8,13,4.4,19.9,5.3c7.5,1,14.3,3.9,19.8,9.5c6.6,6.8,13.1,13.8,20.8,19.5c6.5,4.9,12.3,10.6,16.6,17.6
		c2.1,3.3,4.7,6.3,7.2,9.4c1.5,1.9,3.4,3.7,5.9,2.9c6.1-2.1,12.3-1.7,18.5-1.3C921.6,538.6,923.1,536,925.8,534.5z M449.1,566.3
		C449.1,566.3,449.1,566.4,449.1,566.3c-6.3,0.1-12.6,0.1-18.8,0.1c-0.8,0-1.9-0.1-2.2,1.1c-0.3,1.3,0.1,2.3,1.4,2.8
		c1.3,0.5,2.6,0.9,4,1.2c8.8,2.4,17,6.1,25.4,9.6c13.7,5.7,26.8,12.9,41.5,16.1c4.6,1,6.3,0.1,7.4-4c1-3.8,2.8-7.2,6.8-8.2
		c9.9-2.7,18.7-8.3,28.8-10c3.3-0.6,3.8-2.2,3.3-4.7c-0.9-4.3-2-8.6-3-12.9c-0.8-3.5-3-3.9-6.3-3.4c-11.9,1.9-23.8,3.3-35.7,5.4
		c-10.4,1.9-21.3,0.7-31.1,6.1c-1.9,1-4.5,0.7-6.9,0.8C458.9,566.4,454,566.3,449.1,566.3z M1310.7,692.4c2.1,0.5,2.6-1.8,2.2-4.8
		c-0.3-2.1-1.3-4.2-1.1-6.1c0.6-5.5-2.9-7.3-7-8.7c-1.8-0.6-3.5-1.2-5.4-1.4c-11.7-1.8-22.9-5.5-34.1-9.3c-4.8-1.6-9.7-3.2-14.6-4.6
		c-1.6-0.5-3.5-0.4-4.3,1.3c-0.9,1.9-1.2,4.1,0.5,5.8c1,0.9,2.2,1.6,3.5,2.2c14.2,6.8,28.4,13.7,42.7,20.3
		C1298.1,689.4,1303.3,691.5,1310.7,692.4z M1291.2,657.2c3.5,0.2,4.6-1.2,2.9-4.1c-1.2-2.2-2.6-4.5-4.6-6.1
		c-5.9-4.9-9.2-11.6-12.6-18.1c-0.7-1.2-1.3-2.5-2.1-3.6c-2.9-3.7-5.6-4-8.4-0.3c-3.8,5-7.1,10.3-10.4,15.6
		c-1.6,2.6-1.7,4.8,2.1,6.2c10.2,3.8,20.7,6.9,31.1,10C1290,657,1290.7,657.1,1291.2,657.2z M492.2,554.2c0.1,0.7,0.2,1.4,0.3,2.1
		c4.2,0.5,8.4,0.2,12.7-0.6c3.9-0.7,7.6-1.9,11.6-1.6c5.3,0.5,9.9-2.2,14.8-3.5c1.3-0.3,2.6-1,1.7-3c-0.6-1.3-0.9-2.6-2.8-2.3
		c-0.9,0.1-1.9-0.1-2.8,0.1C515.9,548.3,504,551.3,492.2,554.2z M534.9,501.5c-0.4,1.1-0.7,1.7-0.7,2.3c0,0.4,0.3,0.8,0.5,1.1
		c0.2-0.4,0.6-0.7,0.6-1.1C535.3,503.3,535.1,502.7,534.9,501.5z"/>
	<path class="st0" d="M568.6,268c0.1,0.9,0.2,1.7,0.3,2.6c0,0-0.5,0.1-0.5,0.1c-0.5-0.9,0.1-1.7,0.3-2.5L568.6,268z"/>
</g>
</svg>
