<?xml version="1.0" encoding="utf-8"?>

<!DOCTYPE svg PUBLIC "-//W3C//DTD SVG 1.1//EN" "http://www.w3.org/Graphics/SVG/1.1/DTD/svg11.dtd">
<svg version="1.1" id="Layer_1" xmlns="http://www.w3.org/2000/svg" xmlns:xlink="http://www.w3.org/1999/xlink" x="0px" y="0px"
	 viewBox="0 0 1548.1006 1657.1896" enable-background="new 0 0 1548.1006 1657.1896" xml:space="preserve">
<g>
	<path d="M568.7987,268.1793c1.1932-16.3681,7.2418-30.4078,19.4608-41.6926c9.572-8.8403,18.4802-18.4618,30.1763-24.6786
		c2.438-1.2959,3.6856-3.2829,4.5981-5.8213c3.5118-9.769,7.9714-18.9156,17.4688-24.4336
		c1.9473-1.1314,2.9908-3.0289,3.4627-5.0672c1.058-4.5704,5.8404-7.3175,5.6238-12.7142c-0.0806-2.0103,3.3483-3.5593,5.542-3.4599
		c4.2416,0.1924,5.2379-2.5368,5.8449-5.5255c0.871-4.2874,0.5809-8.0239-1.6895-12.5031
		c-4.7298-9.3315-6.9025-19.6895-5.5902-30.4268c0.4221-3.454,1.2116-7.0203,0.7464-10.3849
		c-0.5565-4.024,1.0909-6.3593,4.18-7.9242c3.7775-1.9137,5.0535-5.0302,5.7057-8.9279
		c2.9406-17.5706,11.4631-30.7286,27.9058-39.2787c6.849-3.5614,13.9284-4.1174,20.8246-6.2393
		c4.3327-1.3331,8.7668,0.1298,12.7147,2.4696c2.4279,1.439,4.9037,2.8153,7.8469,2.5143
		c18.4461-1.8865,27.9424,10.1132,36.1425,23.6595c3.7405,6.1793,5.8992,13.2315,7.5343,20.2469
		c1.3075,5.6105,0.8111,49.9842-2.5513,51.4853c-5.7962,2.5877-7.587,7.5921-9.7437,12.7282
		c-3.8615,9.1959-9.3195,17.6979-11.4172,27.6691c-0.9167,4.3571-4.1929,7.1138-8.2607,8.8764
		c-3.8444,1.6658-7.65,3.4205-11.4803,5.1191c-4.7866,2.1227-5.0137,2.7981-1.4113,6.761c2.1853,2.4038,4.7704,4.4391,7.0992,6.7182
		c6.277,6.1431,5.9465,8.679,0.6224,15.7386c-4.325,5.7351-6.0333,13.6126-3.3881,19.7312
		c8.726,20.184,14.317,41.9986,28.9947,59.2984c3.3123,3.904,6.0773,8.3212,9.67,11.9286
		c8.5038,8.5384,10.5813,18.8994,9.1538,30.2383c-1.634,12.9795-2.0188,25.9855-1.5997,39.0267
		c0.2178,6.776,0.6647,7.0181,7.3531,6.3414c5.2705-0.5334,20.1586-3.8798,21.3593-1.3374c1.925,4.0764,5.7285,5.2287,9.4928,6.3933
		c5.1281,1.5865,10.1708,3.3179,14.9073,5.9043c4.9519,2.7041,8.6974,6.2813,9.406,12.1857
		c0.2912,2.4261,1.2906,4.3987,3.1688,5.4779c-0.277,2.2977-1.8899,2.2375-3.033,2.9255
		c-11.1865,6.7326-13.2328,21.8453-3.4179,29.3432c11.4753,8.7663,21.1206,19.8915,33.6115,27.24
		c14.0159,8.2456,27.9039,16.7353,42.3324,24.2917c11.9407,6.2535,23.3135,13.5677,35.647,19.1124
		c3.0331,1.3636,6.1582,2.019,9.3838,2.5063c1.6834,0.2543,3.9418,0.4215,4.5974-0.8465
		c3.0153-5.8329,9.2811-7.4601,13.9403-11.0484c8.6076-6.6292,13.9684-16.1861,22.298-23.03
		c7.5189-6.1778,15.7696-10.9287,24.9384-13.7078c12.364-3.7475,24.0867-8.1132,33.6371-17.4587
		c5.4788-5.3611,12.3092-9.1527,20.1831-10.4996c1.8008-0.308,3.8314-0.8062,5.1925-1.9112
		c12.1781-9.8872,27.9005-12.7567,40.9388-20.7975c10.2147-6.2995,22.0089-8.789,32.4034-14.4701
		c7.9089-4.3225,15.6611-8.9446,23.3512-13.649c4.2195-2.5812,8.6207-4.6185,13.3756-5.8578
		c3.886-1.0129,7.421-2.6367,10.6864-4.9812c7.0991-5.0969,15.1475-5.9165,23.3402-4.1003
		c5.5077,1.221,10.6805,2.4976,16.4043,0.7593c3.4855-1.0585,7.3657-0.3496,11.0375,0.6434
		c4.1312,1.1172,7.8546,0.4658,10.5708-3.2868c2.1349-2.9492,5.1691-3.7099,8.6376-3.4949
		c4.6635,0.2891,9.2853,0.0529,13.8982-0.8894c3.6787-0.7514,7.4851-0.8455,11.0106,0.6686
		c3.8438,1.6507,7.3221,0.8451,10.6241-1.1379c7.7227-4.6375,16.1439-5.7806,24.9015-5.0923
		c5.6284,0.4424,11.2037-0.0959,16.7134-0.8862c4.0961-0.5876,7.4409,0.0999,9.9976,3.2827
		c4.2644,5.3089,9.924,6.2449,16.2546,5.8955c8.3483-0.4607,16.7228-1.094,24.9862,1.0608c3.0742,0.8017,4.894-1.1318,6.0242-3.5952
		c1.842-4.0153,3.4219-8.1501,5.1655-12.2116c4.2847-9.9801,11.163-17.6551,20.7491-22.7635
		c4.4603-2.3769,8.9207-1.9864,11.7104,0.7769c3.2335,3.2029,2.2152,6.8373,0.6519,10.3616
		c-6.4382,14.512-4.4253,28.9597,0.2858,43.3769c0.7246,2.2176,2.2485,3.4673,4.8208,2.7637
		c7.7726-2.1263,15.9321-2.933,21.9879-9.5221c4.9199-5.3532,11.4199-8.5879,18.2697-11.261
		c7.5754-2.9562,14.1711-0.7357,20.6412,2.6934c4.5647,2.4192,5.4225,7.0933,1.3495,10.2062
		c-12.0012,9.1726-13.4382,23.5706-17.6708,36.2109c-2.3448,7.0029,2.822,14.4283,8.4191,19.5959
		c6.3547,5.8668,7.7915,13.7938,9.2131,21.3425c0.8406,4.4651-0.8937,9.6254-0.2618,14.4735
		c2.212,16.9728,1.9829,33.8705-1.0615,50.7306c-0.4952,2.7427-0.2059,5.7277-4.2076,6.0901
		c-2.3708,0.2147-2.782,2.5452-2.7928,4.1622c-0.0962,14.4991-6.0247,28.1951-5.7821,42.7177
		c0.093,5.5823-3.2416,10.1329-4.8298,15.1766c-3.2668,10.3729-3.179,21.0933-4.9711,31.5883
		c-2.412,14.1254-0.8381,28.2977,0.0715,42.423c0.4012,6.2336,1.5461,12.4609,2.8489,18.5858
		c2.2094,10.3868,1.0845,20.895,1.3557,31.33c0.1021,3.9281-3.7755,29.4939-5.822,39.0396
		c-3.1182,14.5449-3.8389,29.4512-6.9453,44.0054c-2.5605,11.9966-9.4313,19.6205-21.4142,22.0502
		c-9.468,1.9197-17.3058,5.4975-23.1802,13.8618c-5.042,7.1793-13.1219,9.1345-21.8241,7.9129
		c-5.2247-0.7335-10.8083-0.045-15.1699-4.0314c-1.1971-1.0943-3.1543-1.9169-3.5529-3.2311
		c-2.0378-6.7196-8.0471-7.9391-13.3604-9.8679c-4.6873-1.7016-8.3562-4.3473-12.1539-7.603
		c-3.5831-3.0718-8.4006-5.6194-12.8788-7.1148c-5.6838-1.8982-11.7369-3.7958-18.2384-2.64
		c-6.4689,1.1501-12.7103-0.0697-19.0496-2.5889c-10.1262-4.0243-19.4955-9.8433-30.1256-12.6276
		c-1.3441-0.3521-3.0402-0.658-3.5332-2.0037c-1.9603-5.352-7.0468-6.4189-11.3264-8.5514
		c-23.7419-11.8303-47.5096-23.6086-71.2687-35.4045c-1.2511-0.6212-2.4751-1.3068-3.7589-1.8506
		c-5.0588-2.1431-6.9213-1.7072-9.6246,3.2741c-6.7723,12.4793-13.4916,24.9948-19.8654,37.6799
		c-3.0071,5.9843-7.2972,11.3818-8.6138,18.193c-2.1454,11.0986-1.296,22.2301-0.5859,33.3748
		c1.021,16.0226,4.3953,31.7409,6.1152,47.6578c1.3439,12.4348-1.4874,24.642-5.4369,36.3039
		c-3.7227,10.9927-8.1318,21.7906-13.0435,32.3724c-3.7803,8.1446-8.8239,15.2903-14.6158,22.0077
		c-1.8367,2.1302-3.6733,4.2545-4.5361,6.9673c-5.6716,17.8346-17.3688,31.0599-32.0399,42.0225
		c-4.6859,3.5015-5.6995,5.8284-2.6754,10.4998c13.5905,20.9923,21.3618,44.9441,34.069,66.3558
		c4.2549,7.1698,8.1249,14.5803,13.1798,21.2852c1.9307,2.5607,3.5956,5.5892,4.429,8.663
		c3.4944,12.889,11.2012,23.3939,18.9722,33.7699c10.8812,14.5288,20.0704,30.1248,29.8129,45.379
		c3.6764,5.7565,6.1667,11.996,8.3186,18.3992c2.3832,7.0916,5.424,13.8341,9.4583,20.1613
		c4.4207,6.9329,6.8474,14.7538,9.467,22.4706c1.6873,4.9707-0.8777,9.6235-1.1853,14.4513
		c-0.1896,2.9752-1.1112,5.9391-1.9664,8.8304c-2.5315,8.5555-1.1869,17.1859,0.6604,25.4193
		c3.0453,13.5737,5.6234,27.2416,8.473,40.8475c2.0082,9.5889,4.3795,19.0723,7.5137,28.2749
		c4.5101,13.2432,7.0135,26.9547,10.5349,40.4197c1.3075,4.9999,3.8517,9.4423,5.1622,14.4153
		c0.8073,3.0629,1.2764,5.8551,0.203,8.8337c-3.1162,8.6475-2.3394,17.2026-0.2625,26.0223
		c2.7058,11.4915,6.3029,22.6089,10.4946,33.6378c4.178,10.9924,5.0685,22.5796,2.4105,34.1503
		c-0.6759,2.942-0.439,5.4805,0.4938,8.1417c3.6836,10.5095,4.9064,21.7573,9.5939,31.9655c0.0958,0.209,0.1564,0.4435,0.1854,0.672
		c2.1069,16.6007-1.1989,19.3043-15.5829,17.9609c-12.5316-1.1702-23.7802-6.0851-33.5679-14.1985
		c-10.0239-8.3094-20.054-16.6189-30.2941-24.6572c-6.3169-4.9587-10.712-11.6237-16.306-17.2042
		c-2.0035-1.9987-2.5548-4.5918-1.5079-7.119c2.2375-5.4019,3.0804-11.0492,3.6187-16.7915
		c0.8341-8.8961,7.3026-14.1224,13.0007-19.8333c1.3131-1.3163,2.868-2.3979,4.1327-3.7544
		c3.5548-3.8131,2.9275-7.3815-2.0028-8.885c-5.0808-1.5492-7.6073-4.2213-8.1584-9.722c-0.3613-3.6078-3.3654-6.574-5.7045-9.4316
		c-4.0581-4.9575-5.7542-10.4561-5.3326-16.8334c0.8281-12.5299-1.3744-24.9551-1.5375-37.4568
		c-0.0211-1.6184-0.5059-3.3718-0.0443-4.8315c2.1477-6.7937,0.4652-13.2235-1.3698-19.7009
		c-0.9551-3.3713-1.6389-6.8289-1.3523-10.3508c0.9938-12.2113-1.1025-24.0591-3.636-35.9368
		c-2.0779-9.7415-3.7512-19.4921-6.6964-29.1056c-2.2539-7.3567-1.7026-15.5507-4.2137-23.1487
		c-1.6218-4.9077-3.6345-9.514-6.3125-13.8981c-6.7892-11.1154-13.51-22.2723-20.2719-33.4045
		c-7.2123-11.8735-17.0402-21.5884-27.2598-30.6401c-13.9027-12.3138-28.9213-23.3589-43.1697-35.296
		c-5.8569-4.907-10.9148-10.761-16.4055-16.1132c-12.297-11.9863-23.3157-25.2616-36.6434-36.2109
		c-11.0567-9.0835-24.0878-14.9529-36.2595-22.2036c-3.0034-1.7891-5.9371-3.5201-8.6127-5.7581
		c-5.1018-4.2672-7.9024-4.2583-13.5266-0.5623c-3.0197,1.9844-5.8365,4.4518-6.873,7.6807
		c-3.2574,10.1475-10.6624,18.0001-14.6799,27.6785c-0.4426,1.066-1.2332,1.9934-1.6358,3.0697
		c-10.4282,27.8737-24.7,54.1642-34.1837,82.4089c-5.8348,17.3776-11.5396,34.8376-16.2289,52.5452
		c-2.4382,9.2065-4.3639,18.4884-8.1655,27.2777c-0.9065,2.0957-1.4917,4.3932-1.2917,6.7986
		c1.2587,15.1437-5.6191,27.4755-13.7097,39.3649c-1.3085,1.923-2.7856,3.7356-4.2459,5.55
		c-3.6432,4.5269-6.71,9.1937-8.4221,14.9879c-1.4871,5.0331-5.1978,9.3705-7.0472,14.3422
		c-6.6219,17.8009-12.0182,35.9745-15.934,54.594c-1.0986,5.2236-2.2258,10.437-3.2236,15.684
		c-0.5308,2.7917-1.1524,5.7333-0.3054,8.2935c1.6197,4.8961,1.929,9.4983-0.3872,14.1874
		c-0.3541,0.7168-0.838,1.3732-0.2864,2.4545c4.0615,7.9624,2.6193,16.9093,4.3208,25.3147
		c0.7496,3.7028,1.8983,7.1556,3.5085,10.5405c1.5513,3.261,3.1334,6.2568,3.4086,10.3076
		c0.2469,3.6329,3.6844,7.3303,6.3458,10.463c6.472,7.6183,13.0078,15.2067,20.2913,22.0896
		c2.2806,2.155,3.9379,4.6974,4.264,7.8127c0.964,9.2097,7.11,15.3009,12.9838,21.4407c2.2442,2.3459,5.0766,4.2126,6.418,7.2465
		c3.7999,8.5942,9.7485,15.7629,15.0968,23.3365c1.5794,2.2367,3.9683,4.4297,2.1899,7.4976
		c-1.9468,3.3584-5.3637,4.5526-8.9785,4.2954c-3.9182-0.2789-7.7803-1.2775-11.6827-1.8551
		c-13.8215-2.046-27.203-6.0225-40.6296-9.6588c-10.5783-2.8649-21.4838-2.734-32.1039-4.8469
		c-3.1937-0.6354-6.4398-1.011-9.6276-1.672c-3.0318-0.6285-6.353-1.7963-7.6964-4.4274
		c-4.6579-9.1223-11.1218-17.7432-9.6835-28.944c0.3708-2.8883,1.8295-5.2385,3.4424-7.5402
		c2.0032-2.8584,3.6565-5.7346,4.1566-9.4054c0.9053-6.6467-1.246-11.2894-7.7839-14.0123
		c-3.5679-1.4858-4.5943-5.3019-7.2124-7.1808c-2.5522-1.8312-6.8624-0.009-9.7833-2.4659
		c-2.8938-2.4343-5.4019-5.1621-6.2214-9.0187c-0.2409-1.1345,0.1011-2.5967-0.497-3.4197
		c-5.7146-7.8601-5.1765-16.9453-5.7922-25.9758c-0.6396-9.3801,1.1877-17.7749,6.0593-25.7766
		c2.8607-4.6986,5.5677-9.5245,6.8554-15.0605c0.9417-4.0485,2.6121-7.9467,4.1603-11.8309
		c3.7806-9.486,7.4689-18.9541,8.6756-29.2396c0.4308-3.6719,2.0973-7.3649,4.4265-10.1716
		c6.4134-7.7292,8.2233-17.1667,10.1229-26.4316c1.4104-6.8784,3.5005-13.4911,5.536-20.15
		c3.0211-9.8834,4.4329-19.8839,3.7339-30.2714c-0.6859-10.1925-0.1058-20.4333-1.6497-30.6206
		c-1.5787-10.4153,1.6069-20.4922,4.6136-30.1345c3.6285-11.6366,5.149-23.6025,7.8046-35.3723
		c5.3301-23.6227,7.5958-47.6929,10.0799-71.736c1.1451-11.0825,3.7938-22.0315,4.5786-33.1245
		c1.1041-15.6029,6.0455-30.5267,7.4903-45.9429c1.3505-14.4106,2.1824-13.4911-11.3661-15.6381
		c-10.798-1.7112-21.3878-4.55-30.9903-10.1901c-7.4361-4.3676-15.9721-4.7394-24.1628-6.1444
		c-3.9647-0.6801-7.6876-1.7047-11.3267-3.2936c-1.9131-0.8352-3.818-1.8468-5.8333-2.2635
		c-8.7042-1.7999-10.2332-0.3314-11.1447,8.5217c-0.593,5.7594-1.7316,11.5154-3.2091,17.1191
		c-2.7325,10.3641-3.9022,20.9409-4.818,31.5474c-0.4084,4.7302-2.0997,9.059-3.2366,13.5485
		c-3.4908,13.7854-3.6843,28.0792-6.7567,41.9237c-1.8599,8.3809-3.5368,16.807-5.083,25.2518
		c-2.0436,11.1606-3.9362,22.3391-4.8181,33.6832c-1.2408,15.9634-2.7752,31.9043-4.2578,47.848
		c-0.1704,1.8335-0.7169,3.6525-1.2629,5.4247c-0.4725,1.5338-0.9655,3.1996-3.1218,3.1718
		c-2.4659-0.032-3.1227-1.8793-3.3958-3.7207c-0.3734-2.5177-0.5538-5.0928-0.5117-7.6381
		c0.1852-11.1796,2.8521-22.0969,3.4408-33.2797c0.4117-7.8229,0.947-15.7126,2.0005-23.5482
		c0.6776-5.0398,0.942-10.2623,2.0646-15.1658c2.8073-12.2621,3.0227-24.8278,5.1119-37.1594
		c0.6299-3.7184,2.2059-7.1118,2.8312-10.7734c3.7496-21.9608,9.1483-43.5923,12.9701-65.5481
		c1.3923-7.9985,2.4382-16.0511,3.9072-24.0387c1.3766-7.4847,0.1948-8.3168-7.245-8.832
		c-14.8359-1.0277-29.4952-3.4955-44.1168-6.1455c-5.4809-0.9935-10.954-1.96-16.3739-3.3529
		c-5.3625-1.3782-10.8372-1.2751-16.5177-0.7434c-14.1393,1.3235-28.3373,0.9409-42.3265-2.2189
		c-4.7114-1.0642-8.9427-2.6183-11.1003-7.4506c-0.5682-1.2724-1.4773-2.1597-3.0546-2.5524
		c-4.5074-1.1223-8.899-2.7369-13.4296-3.7324c-5.1337-1.1279-7.1981,0.4681-8.3021,5.6273
		c-3.939,18.4084-7.8952,36.8132-11.82,55.2247c-0.2885,1.353-0.429,2.7438-0.553,4.1246
		c-0.788,8.7727-1.9677,17.402-4.0977,26.0455c-2.8776,11.6775-3.5992,23.8621-7.2263,35.4375
		c-1.1112,3.5465-2.0901,7.1494-3.4543,10.598c-1.8666,4.7189-6.9557,6.4507-11.5204,4.181
		c-2.9576-1.4705-3.7266-5.4058-1.4576-9.8291c7.8778-15.3574,10.2374-32.2683,13.6093-48.8392
		c1.9496-9.5809,5.3773-18.7274,7.1234-28.3568c1.9839-10.9412,4.2712-21.8363,6.7258-32.6986
		c1.5287-6.765,3.7909-13.3971,4.5123-20.3667c0.6376-6.1605,0.2149-7.2479-5.1926-9.7939
		c-1.2621-0.5943-2.5452-1.3253-3.8901-1.5347c-11.6063-1.8074-20.6819-9.0883-30.9217-13.8869
		c-23.95-11.2233-45.3414-26.4695-67.2051-41.0057c-3.041-2.0219-6.4615-2.491-9.7653-3.4775
		c-1.998-0.5965-3.6414,0.3968-4.7879,2.0651c-1.1852,1.7245-2.4825,3.4122-3.3873,5.2822
		c-3.8738,8.005-11.884,9.8776-19.0553,12.9504c-1.2037,0.5157-2.9902,0.7685-4.0879,0.2518
		c-5.9435-2.7982-8.0002,0.7908-10.4872,5.2885c-4.1876,7.5734-9.8753,14.0761-16.5329,19.681
		c-5.5221,4.6491-10.719,9.7438-16.574,13.9205c-5.523,3.9401-8.6928,8.8355-9.509,15.4291
		c-0.6898,5.5724-2.2252,10.9421-4.0772,16.2114c-2.1716,6.1783-3.5736,12.5814-3.9532,19.0284
		c-0.3633,6.171-1.9907,11.8896-3.8419,17.6462c-6.0563,18.8328-10.0882,38.0908-12.1519,57.7655
		c-0.1938,1.8479-0.2736,3.8119-0.9722,5.486c-5.443,13.0444-2.3325,26.6895-2.8884,40.0647
		c-0.0833,2.0052,0.7184,4.1226,1.4302,6.0714c2.1888,5.993,2.2437,12.2167,2.8927,18.4688
		c1.2218,11.771,0.4281,23.6775,2.9904,35.3746c1.5305,6.9868,2.7778,14.2191,2.2713,21.4229
		c-0.6643,9.4485,2.5821,17.7593,8.2076,24.5854c7.7443,9.3972,11.887,20.4675,16.9518,31.1436
		c3.3969,7.1602,6.6663,14.3464,11.2763,20.8511c3.3845,4.7755,5.8147,10.0913,7.8526,15.5529
		c2.5279,6.7747,5.549,12.9823,10.7067,18.462c6.4993,6.9052,11.2321,15.3647,18.4493,21.8147
		c2.7231,2.4336,3.8314,6.3485,4.7493,9.9869c2.8399,11.2565,5.6761,22.5146,8.3741,33.8055
		c0.9321,3.9005,2.2417,7.5483,4.5565,10.8572c1.4786,2.1134,2.6324,4.4802,2.4993,7.1439
		c-0.2173,4.3506,1.8558,7.569,4.761,10.4548c0.8264,0.8209,1.5429,1.7734,2.4484,2.4908
		c9.0219,7.1482,12.405,16.239,12.9424,27.9188c0.5919,12.8646,3.8784,25.6428,7.5326,38.1472
		c1.6831,5.7593,2.7836,11.5773,6.2175,16.8386c3.5342,5.415,2.0548,11.7272,0.8163,17.6954
		c-0.3589,1.7296-1.8583,2.5723-3.4144,3.2323c-5.9005,2.504-11.8915,4.0599-18.3326,2.2117
		c-6.0438-1.7343-12.1533-3.2477-18.1637-5.0876c-5.1392-1.573-10.2682-2.9774-15.6763-3.2686
		c-10.2019-0.5492-17.431-7.296-25.0419-12.8142c-2.8071-2.0353-5.0251-4.452-8.671-5.1266c-2.73-0.505-4.9825-1.4933-4.734-5.4762
		c0.1912-3.0641-2.086-5.9337-3.8435-8.5785c-2.4636-3.7072-4.3099-7.6869-6.0397-11.7701
		c-1.8491-4.3647-1.7179-8.0945,2.3107-11.1731c3.965-3.03,5.1982-6.6631,2.8988-11.4458
		c-1.9685-4.0942-0.2782-7.6025,2.4497-10.8693c3.1259-3.7429,6.1806-7.5648,8.9794-11.5537
		c1.4273-2.0342,2.7728-4.5054-0.6365-6.3866c-0.704-0.3884-1.5101-1.5905-1.4043-2.2863c0.6961-4.5774-3.5461-6.6903-4.8486-10.204
		c-1.5538-4.1915-5.0344-6.5703-8.071-9.4314c-2.0876-1.967-3.3795-4.5249-3.4868-7.4287
		c-0.1934-5.226-1.7642-10.0215-4.0099-14.6753c-1.12-2.3206-1.9924-4.7969-1.6863-7.4137
		c1.6641-14.2291-4.4406-26.7587-8.2256-39.8867c-4.3814-15.1968-12.7864-28.3069-19.5411-42.3057
		c-7.4339-15.4066-16.6366-29.5432-26.2294-43.5687c-3.3811-4.9435-7.7415-8.6466-12.2321-12.3109
		c-3.3622-2.7435-5.8161-5.7968-6.7432-10.2223c-0.8057-3.8461-2.5319-7.4564-4.409-10.963
		c-2.5258-4.7185-5.4653-9.4352-6.3062-14.7008c-1.2303-7.704-5.1088-13.7019-9.7593-19.6331
		c-2.8126-3.5872-5.6661-6.5616-10.0398-8.1952c-5.5399-2.0691-8.3665-6.1165-8.4809-12.3141
		c-0.137-7.422-3.5672-14.4697-2.8839-22.0524c0.0817-0.9071-0.2861-1.8866-1.3637-2.1676
		c-0.9955-0.2596-1.8384,0.1642-2.3844,0.9854c-1.4152,2.1288-2.945,4.2054-4.1268,6.4612
		c-8.5543,16.3271-18.247,31.9177-30.0386,46.1177c-6.0756,7.3164-7.3286,16.2684-9.6966,25.0243
		c-5.1204,18.9331-7.3833,38.334-9.0898,57.682c-1.9527,22.1383-6.5323,44.1924-4.5608,66.5498
		c0.84,9.5251,0.0175,19.2321,1.5992,28.494c2.2878,13.3973,6.0686,26.5323,17.4503,36.0974
		c4.5528,3.826,9.2953,7.6766,13.2164,12.3387c3.628,4.3137,7.0137,8.5686,8.0765,14.3649
		c0.7261,3.9598,3.3596,7.1487,5.7838,10.2339c4.9039,6.241,9.0219,12.9735,13.0853,19.7565
		c1.927,3.217,4.4654,5.9292,6.9635,8.7108c4.4613,4.9675,3.7907,11.0437-1.3396,15.165
		c-3.3003,2.6509-6.9767,4.5785-10.8962,6.1667c-10.1234,4.1024-20.2174,8.2795-30.2705,12.5509
		c-3.2622,1.3861-6.4698,1.1851-9.515-0.0797c-9.8399-4.087-19.8685-7.6746-28.2699-14.7599
		c-5.4857-4.6263-11.1487-9.1252-17.2332-13.0822c-4.7051-3.0598-9.1896-6.9586-5.9096-13.7855
		c-3.2734-11.0065,3.4854-19.6783,6.8889-29.0911c2.0535-5.6792,2.3513-5.7867-3.7616-7.0847
		c-4.4341-0.9413-7.6496-4.1283-8.3455-7.5754c-1.152-5.7065-4.6159-7.2219-9.2311-8.7489
		c-13.0504-4.3176-16.937-11.4115-14.1232-25.1572c0.606-2.9604,0.6579-5.7778,0.3323-8.8446
		c-0.7606-7.1643-0.4144-14.384,0.2803-21.6019c0.7563-7.8575-2.3009-11.6079-8.3904-11.7889
		c-3.2307-0.0959-4.9392,1.8195-6.6124,4.676c-2.9794-4.5277-5.1469-8.2349-5.5394-13.5388
		c-0.4515-6.1002-3.2167-12.0465-5.1188-18.0145c-0.968-3.0374-2.9412-4.4597-5.5882-1.7401
		c-2.8841,2.963-4.4238,1.1348-5.8484-1.2751c-0.8193-1.3861-1.789-2.9463-1.8585-4.4662
		c-0.2686-5.8726-2.6895-10.9082-5.1752-16.0669c-1.8324-3.8029-3.4034-7.4677-7.0935-10.004
		c-3.7399-2.5706-4.2285-7.0702-5.2637-11.0747c-1.9094-7.3859-3.6296-14.7781-7.7555-21.3999
		c-1.7185-2.7581-3.8104-4.4626-6.8121-5.5475c-9.6156-3.4751-11.6679-6.9011-10.4103-17.2889
		c0.529-4.3699,1.3486-8.6321,1.2045-13.1389c-0.219-6.8499-1.366-13.3905-3.6919-19.7827
		c-0.8782-2.4136-1.6644-4.8414-1.4075-7.4827c1.1041-11.3484-0.4513-22.764,0.8359-34.103
		c0.2685-2.3649,0.1894-4.618-0.4939-6.8965c-1.0306-3.4363-0.9947-6.8842,0.104-10.3223
		c2.1804-6.8234,1.7704-13.7423,0.8853-20.7205c-1.0307-8.1268,1.2966-16.1525,0.6948-24.3496
		c-1.1228-15.2948,2.2787-30.4766,1.1031-45.9391c-0.6254-8.2257,0.2431-16.9294,1.8901-25.464
		c2.3631-12.245,3.9427-24.7422,4.111-37.3171c0.0529-3.9522,0.266-7.9116,0.6213-11.8482c0.463-5.13,0.4336-10.1027-0.9265-15.2055
		c-1.9334-7.2535-1.1549-14.8724-0.9984-22.2397c0.2203-10.3696,0.9224-20.7908,2.4585-31.1217
		c0.728-4.8964,2.1008-9.5642,3.702-14.1536c3.0632-8.7799,5.0783-17.8603,7.7644-26.7439
		c2.4645-8.151,3.4479-16.8766,4.0756-25.4232c0.7356-10.0156,2.6364-19.7889,4.6118-29.557
		c1.89-9.3463,2.0177-18.9575,4.5704-28.1924c0.9013-3.2604-0.1101-6.419-0.9941-9.5985
		c-1.5436-5.5519-1.472-11.1097,1.3461-16.2983c6.7774-12.4782,11.3243-25.9966,18.3634-38.3816
		c7.6934-13.5361,14.746-27.405,23.4521-40.3885c4.7867-7.1384,9.5312-14.2789,14.5164-21.2908
		c5.027-7.0708,10.5126-13.5515,16.8181-19.5148c4.9559-4.6866,10.1672-8.7852,16.1207-12.0844
		c5.4982-3.0468,10.7256-6.5502,15.5531-10.6192c3.9371-3.3185,8.3696-5.7618,13.0599-7.9365
		c10.503-4.8697,20.733-10.0989,29.7367-17.7257c13.165-11.1518,27.5614-20.3206,44.2472-25.7952
		c19.252-6.3164,37.5403-15.1365,56.1301-23.1522c2.7769-1.1973,5.5767-2.3495,8.407-3.4131
		c7.8112-2.9353,15.4566-5.9631,22.7528-10.3141c9.6434-5.7505,20.9221-7.5756,31.9185-9.6275
		c5.0204-0.9368,10.0621-1.7929,15.1227-2.4728c5.3357-0.7168,10.7165-0.9617,15.9012,0.9064
		c8.6474,3.1158,17.1872,3.395,26.4593,2.1719c9.4256-1.2433,19.0439-2.4403,28.9109-1.1313
		c10.0331,1.3311,20.3216,0.6863,30.427-2.1262c10.9531-3.0484,22.2293-4.9221,33.3314-7.4536
		c7.6751-1.75,8.3315-2.654,8.3486-10.3923c0.0112-5.104-0.4034-10.0931-1.454-15.1936c-1.298-6.302-0.1925-12.9155,0.8032-19.3414
		c0.1036-0.6684,0.329-1.4831,0.7932-1.9054c7.0427-6.408,7.1795-14.8171,6.9566-23.3853
		c-0.1334-5.1298,3.1564-8.6937,6.3097-12.0709c2.4475-2.6212,5.1751-1.162,7.4012,0.8109
		c4.1013,3.6349,6.9325,8.1915,8.6752,13.3299c1.2748,3.7589,3.1696,6.658,7.1682,7.8402c3.4429,1.018,4.6276,4.4305,6.8747,6.7162
		c4.639,4.7187,6.2634,4.7077,10.6802-0.2025c2.3906-2.6578,4.15-5.5684,4.2595-9.3117c0.0859-2.94-0.3118-5.3407-3.1401-7.1818
		c-3.1215-2.0318-5.6247-4.8982-7.5836-8.1141c-3.8948-6.3938-8.5226-12.1925-13.5375-17.7481
		c-4.8734-5.3989-4.7404-7.8031,0.3307-13.0812c4.7161-4.9086,9.5317-9.6759,8.9897-17.3502
		c-1.3136-1.1085-2.5809-0.0357-3.8678,0.1668c-3.0752,0.4839-3.5945-1.3293-3.278-3.75c0.086-0.6581,0.5079-1.3013,0.875-1.8894
		c5.0368-8.0702,4.0799-16.4526,1.2762-24.9081c-5.1887-15.6484-8.122-31.9021-6.511-48.1373
		c1.1948-12.0403-0.2168-23.5385-1.266-35.2827c-0.4518-5.0568-1.3495-11.2647,1.4791-14.9688
		c2.8682-3.7559,3.5938-7.7804,5.1844-11.6825c1.1576-2.8399,1.1536-5.9418-0.8262-8.6667L568.7987,268.1793z M135.8879,1176.8469
		c0,7.1207-0.0344,12.4808,0.0168,17.8401c0.0206,2.1577,0.334,4.463,2.8466,5.0153c2.8714,0.6312,4.1878-1.5433,5.0683-3.7806
		c0.7638-1.9412,1.175-4.0178,1.831-6.0052c3.4599-10.4829,0.4491-20.7814-1.1221-31.0443
		c-1.2135-7.9268,0.7845-14.6089,6.9603-19.2949c10.3583-7.8594,17.015-18.9324,25.6855-28.2354
		c1.5087-1.6189,2.6519-3.719,3.5683-5.9232c3.0491-7.3342,6.6325-14.3561,13.5595-18.9829
		c1.473-0.9839,2.6788-1.9955,2.9668-4.2778c0.8047-6.3771,3.8069-12.2169,6.3917-17.9342
		c3.42-7.5647,7.6182-14.8801,12.3996-21.787c3.3271-4.8064,5.6579-10.1306,7.3239-15.7639
		c4.9376-16.6958,4.2186-32.1462-6.9161-46.8367c-13.9062-18.3471-24.8858-38.7093-37.662-57.8593
		c-2.6746-4.009-3.5396-8.3896-3.1792-13.7591c0.4011-5.9758,2.2789-14.301-7.1595-16.9051
		c-1.0226-0.2822-1.8596-1.3715-2.6948-2.1776c-7.4751-7.2144-12.1372-16.0594-14.7293-26.0136
		c-1.4281-5.4841-3.4509-7.9823-7.4391-7.2549c-6.529,1.1909-12.4173,2.3452-12.2395,9.5031
		c0.1337,5.384,0.2853,10.7382,1.8671,15.8904c0.7871,2.5638,0.9067,4.8755,0.222,7.4841c-0.7015,2.6725-0.684,5.5257-1.1174,8.2784
		c-1.4821,9.4146-0.6514,18.9737-2.2543,28.4362c-1.7807,10.5123-4.4327,20.9399-4.0568,31.7925
		c0.37,10.6824,0.9849,21.3238,2.2938,31.9343c1.1225,9.099,1.5885,18.8885-1.7037,26.9385
		c-3.7573,9.1875,1.1204,17.964-1.9268,26.5348c2.4202,12.6809,1.2181,25.4751,1.0148,38.2169
		c-0.1927,12.0741-1.0453,24.1559,1.2966,36.1115c1.288,6.5754,2.6107,13.1731,4.4795,19.5973
		c1.739,5.9778-0.1466,12.4357,1.8047,17.936C136.1289,1162.538,135.46,1170.5485,135.8879,1176.8469z M1342.3768,729.6003
		c0.068-3.973-2.7278-6.4644-5.3503-8.5073c-6.8718-5.3535-13.6298-10.6017-22.1344-13.846
		c-23.6907-9.0372-46.434-20.3329-69.4276-31.0145c-6.835-3.1751-8.2332-2.8854-11.5219,3.7614
		c-5.2708,10.6524-11.9561,20.4794-17.4419,30.9957c-3.3676,6.4557-3.5093,7.0558,2.9279,10.94
		c7.964,4.8054,16.4451,8.7751,24.2802,13.7687c20.4742,13.0491,42.236,23.4851,64.7603,32.3278
		c15.3527,6.0273,31.6421,9.0728,47.4263,13.7542c4.6078,1.3666,7.179-0.6338,7.3896-5.4933
		c0.54-12.4534-5.5253-21.8535-14.8408-29.0675c-3.6403-2.8191-5.6476-5.9272-6.8345-10.0094
		C1340.8491,734.5945,1342.3779,732.1877,1342.3768,729.6003z M925.8168,534.5279c-2.1824-4.1995-5.2484-6.7099-8.159-9.371
		c-15.2776-13.9684-31.7413-26.6147-46.3009-41.3765c-5.6097-5.6875-11.9241-10.2772-18.9271-14.0913
		c-8.7798-4.7819-17.4235-9.8181-26.0602-14.8573c-7.3895-4.3115-15.2056-7.9771-20.7457-14.9801
		c-2.2523-2.847-5.5732-4.5172-9.7442-4.4498c-1.6033,10.5991,3.4214,20.1866,3.0964,30.4439
		c-0.2207,6.9624,0.8832,6.9887,8.0203,8.6512c0.9028,0.2103,1.8045,0.4921,2.651,0.8665c6.3559,2.812,12.9896,4.3572,19.89,5.3154
		c7.481,1.0388,14.3243,3.9339,19.7668,9.5367c6.6222,6.8173,13.1249,13.7649,20.7513,19.5235
		c6.537,4.936,12.2795,10.5923,16.6447,17.6371c2.072,3.344,4.7292,6.3338,7.2085,9.4139c1.4933,1.8555,3.3965,3.737,5.9034,2.8566
		c6.1069-2.1447,12.3107-1.7443,18.5338-1.2922C921.5682,538.5887,923.1483,536.0283,925.8168,534.5279z M449.1471,566.313
		c0,0.0275-0.0001,0.055-0.0001,0.0825c-6.2786,0-12.5574-0.0181-18.8358,0.0215c-0.8489,0.0053-1.9419-0.1137-2.1918,1.124
		c-0.2558,1.267,0.1159,2.3118,1.4047,2.7778c1.3063,0.4723,2.6438,0.866,3.9837,1.2362
		c8.7582,2.4199,17.0089,6.1053,25.3843,9.5833c13.679,5.6802,26.7573,12.8834,41.4923,16.075
		c4.6289,1.0026,6.3315,0.0971,7.4017-3.9686c0.9876-3.7523,2.7886-7.1594,6.7603-8.2339
		c9.8591-2.6674,18.6817-8.3177,28.8023-10.0459c3.2613-0.5569,3.8126-2.1831,3.3111-4.6849
		c-0.8652-4.3166-2.0162-8.5753-3.015-12.8657c-0.8185-3.5158-2.9805-3.9446-6.2602-3.4099
		c-11.8651,1.9349-23.8298,3.2915-35.653,5.4383c-10.3685,1.8827-21.3205,0.7435-31.0829,6.0779
		c-1.8708,1.0222-4.5462,0.7141-6.8557,0.7617C458.9129,566.383,454.0292,566.313,449.1471,566.313z M1310.7131,692.3885
		c2.1102,0.4594,2.6021-1.8456,2.1921-4.8c-0.2861-2.0624-1.2968-4.1585-1.0668-6.1328c0.6409-5.5028-2.8759-7.3039-7.0173-8.7111
		c-1.7523-0.5953-3.5459-1.1705-5.3674-1.4442c-11.738-1.763-22.9152-5.5398-34.106-9.2985
		c-4.8351-1.6241-9.7056-3.152-14.6027-4.5769c-1.5771-0.4589-3.4916-0.4373-4.297,1.3064
		c-0.8784,1.9012-1.2333,4.1186,0.501,5.8182c0.9653,0.9462,2.2485,1.6309,3.4885,2.2247
		c14.2073,6.8044,28.3878,13.6677,42.6802,20.2897C1298.14,689.3912,1303.3197,691.5112,1310.7131,692.3885z M1291.2493,657.1644
		c3.5182,0.1694,4.5649-1.2026,2.9279-4.1234c-1.2367-2.2067-2.6492-4.5284-4.5565-6.106
		c-5.9281-4.9029-9.1555-11.5684-12.6439-18.1068c-0.6532-1.2242-1.2567-2.5058-2.101-3.5916
		c-2.9082-3.7405-5.5736-4.0119-8.376-0.2731c-3.7511,5.0048-7.1115,10.3161-10.4249,15.6297
		c-1.644,2.6366-1.7109,4.7722,2.1241,6.176c10.2499,3.752,20.6696,6.9296,31.1189,10.0359
		C1289.9817,657.0023,1290.6862,657.0626,1291.2493,657.1644z M492.2431,554.2314c0.0868,0.6846,0.1735,1.3691,0.2602,2.0537
		c4.2189,0.4734,8.4456,0.188,12.6797-0.5757c3.8538-0.6953,7.6075-1.9449,11.6346-1.5964
		c5.2634,0.4554,9.8661-2.1926,14.7506-3.4948c1.2601-0.3359,2.5809-1.041,1.6677-2.9821c-0.61-1.2967-0.9344-2.6033-2.7979-2.3481
		c-0.9116,0.1248-1.8912-0.1108-2.7687,0.1057C515.8532,548.3098,504.0497,551.2769,492.2431,554.2314z M534.8925,501.5462
		c-0.3746,1.1187-0.6819,1.7118-0.738,2.3279c-0.0328,0.3603,0.3354,0.7571,0.5232,1.1375
		c0.2276-0.3542,0.6317-0.7027,0.6436-1.0639C535.3416,503.3272,535.117,502.6988,534.8925,501.5462z"/>
	<path d="M568.6487,268.0371c0.1137,0.8657,0.2296,1.7311,0.3185,2.5993c0.0012,0.0123-0.4727,0.128-0.4971,0.0798
		c-0.4628-0.9107,0.0641-1.7082,0.3287-2.5369L568.6487,268.0371z"/>
</g>
</svg>
