<?xml version="1.0" encoding="UTF-8"?><svg id="Layer_1" xmlns="http://www.w3.org/2000/svg" viewBox="0 0 1494.68 1600"><path d="M542.09,239.58c1.19-16.37,7.24-30.41,19.46-41.69,9.57-8.84,18.48-18.46,30.18-24.68,2.44-1.3,3.69-3.28,4.6-5.82,3.51-9.77,7.97-18.92,17.47-24.43,1.95-1.13,2.99-3.03,3.46-5.07,1.06-4.57,5.84-7.32,5.62-12.71-.08-2.01,3.35-3.56,5.54-3.46,4.24,.19,5.24-2.54,5.84-5.53,.87-4.29,.58-8.02-1.69-12.5-4.73-9.33-6.9-19.69-5.59-30.43,.42-3.45,1.21-7.02,.75-10.38-.56-4.02,1.09-6.36,4.18-7.92,3.78-1.91,5.05-5.03,5.71-8.93,2.94-17.57,11.46-30.73,27.91-39.28,6.85-3.56,13.93-4.12,20.82-6.24,4.33-1.33,8.77,.13,12.71,2.47,2.43,1.44,4.9,2.82,7.85,2.51,18.45-1.89,27.94,10.11,36.14,23.66,3.74,6.18,5.9,13.23,7.53,20.25,1.31,5.61,.81,49.98-2.55,51.49-5.8,2.59-7.59,7.59-9.74,12.73-3.86,9.2-9.32,17.7-11.42,27.67-.92,4.36-4.19,7.11-8.26,8.88-3.84,1.67-7.65,3.42-11.48,5.12-4.79,2.12-5.01,2.8-1.41,6.76,2.19,2.4,4.77,4.44,7.1,6.72,6.28,6.14,5.95,8.68,.62,15.74-4.33,5.74-6.03,13.61-3.39,19.73,8.73,20.18,14.32,42,28.99,59.3,3.31,3.9,6.08,8.32,9.67,11.93,8.5,8.54,10.58,18.9,9.15,30.24-1.63,12.98-2.02,25.99-1.6,39.03,.22,6.78,.66,7.02,7.35,6.34,5.27-.53,20.16-3.88,21.36-1.34,1.92,4.08,5.73,5.23,9.49,6.39,5.13,1.59,10.17,3.32,14.91,5.9,4.95,2.7,8.7,6.28,9.41,12.19,.29,2.43,1.29,4.4,3.17,5.48-.28,2.3-1.89,2.24-3.03,2.93-11.19,6.73-13.23,21.85-3.42,29.34,11.48,8.77,21.12,19.89,33.61,27.24,14.02,8.25,27.9,16.74,42.33,24.29,11.94,6.25,23.31,13.57,35.65,19.11,3.03,1.36,6.16,2.02,9.38,2.51,1.68,.25,3.94,.42,4.6-.85,3.02-5.83,9.28-7.46,13.94-11.05,8.61-6.63,13.97-16.19,22.3-23.03,7.52-6.18,15.77-10.93,24.94-13.71,12.36-3.75,24.09-8.11,33.64-17.46,5.48-5.36,12.31-9.15,20.18-10.5,1.8-.31,3.83-.81,5.19-1.91,12.18-9.89,27.9-12.76,40.94-20.8,10.21-6.3,22.01-8.79,32.4-14.47,7.91-4.32,15.66-8.94,23.35-13.65,4.22-2.58,8.62-4.62,13.38-5.86,3.89-1.01,7.42-2.64,10.69-4.98,7.1-5.1,15.15-5.92,23.34-4.1,5.51,1.22,10.68,2.5,16.4,.76,3.49-1.06,7.37-.35,11.04,.64,4.13,1.12,7.85,.47,10.57-3.29,2.13-2.95,5.17-3.71,8.64-3.49,4.66,.29,9.29,.05,13.9-.89,3.68-.75,7.49-.85,11.01,.67,3.84,1.65,7.32,.85,10.62-1.14,7.72-4.64,16.14-5.78,24.9-5.09,5.63,.44,11.2-.1,16.71-.89,4.1-.59,7.44,.1,10,3.28,4.26,5.31,9.92,6.24,16.25,5.9,8.35-.46,16.72-1.09,24.99,1.06,3.07,.8,4.89-1.13,6.02-3.6,1.84-4.02,3.42-8.15,5.17-12.21,4.28-9.98,11.16-17.66,20.75-22.76,4.46-2.38,8.92-1.99,11.71,.78,3.23,3.2,2.22,6.84,.65,10.36-6.44,14.51-4.43,28.96,.29,43.38,.72,2.22,2.25,3.47,4.82,2.76,7.77-2.13,15.93-2.93,21.99-9.52,4.92-5.35,11.42-8.59,18.27-11.26,7.58-2.96,14.17-.74,20.64,2.69,4.56,2.42,5.42,7.09,1.35,10.21-12,9.17-13.44,23.57-17.67,36.21-2.34,7,2.82,14.43,8.42,19.6,6.35,5.87,7.79,13.79,9.21,21.34,.84,4.47-.89,9.63-.26,14.47,2.21,16.97,1.98,33.87-1.06,50.73-.5,2.74-.21,5.73-4.21,6.09-2.37,.21-2.78,2.55-2.79,4.16-.1,14.5-6.02,28.2-5.78,42.72,.09,5.58-3.24,10.13-4.83,15.18-3.27,10.37-3.18,21.09-4.97,31.59-2.41,14.13-.84,28.3,.07,42.42,.4,6.23,1.55,12.46,2.85,18.59,2.21,10.39,1.08,20.9,1.36,31.33,.1,3.93-3.78,29.49-5.82,39.04-3.12,14.54-3.84,29.45-6.95,44.01-2.56,12-9.43,19.62-21.41,22.05-9.47,1.92-17.31,5.5-23.18,13.86-5.04,7.18-13.12,9.13-21.82,7.91-5.22-.73-10.81-.04-15.17-4.03-1.2-1.09-3.15-1.92-3.55-3.23-2.04-6.72-8.05-7.94-13.36-9.87-4.69-1.7-8.36-4.35-12.15-7.6-3.58-3.07-8.4-5.62-12.88-7.11-5.68-1.9-11.74-3.8-18.24-2.64-6.47,1.15-12.71-.07-19.05-2.59-10.13-4.02-19.5-9.84-30.13-12.63-1.34-.35-3.04-.66-3.53-2-1.96-5.35-7.05-6.42-11.33-8.55-23.74-11.83-47.51-23.61-71.27-35.4-1.25-.62-2.48-1.31-3.76-1.85-5.06-2.14-6.92-1.71-9.62,3.27-6.77,12.48-13.49,24.99-19.87,37.68-3.01,5.98-7.3,11.38-8.61,18.19-2.15,11.1-1.3,22.23-.59,33.37,1.02,16.02,4.4,31.74,6.12,47.66,1.34,12.43-1.49,24.64-5.44,36.3-3.72,10.99-8.13,21.79-13.04,32.37-3.78,8.14-8.82,15.29-14.62,22.01-1.84,2.13-3.67,4.25-4.54,6.97-5.67,17.83-17.37,31.06-32.04,42.02-4.69,3.5-5.7,5.83-2.68,10.5,13.59,20.99,21.36,44.94,34.07,66.36,4.25,7.17,8.12,14.58,13.18,21.29,1.93,2.56,3.6,5.59,4.43,8.66,3.49,12.89,11.2,23.39,18.97,33.77,10.88,14.53,20.07,30.12,29.81,45.38,3.68,5.76,6.17,12,8.32,18.4,2.38,7.09,5.42,13.83,9.46,20.16,4.42,6.93,6.85,14.75,9.47,22.47,1.69,4.97-.88,9.62-1.19,14.45-.19,2.98-1.11,5.94-1.97,8.83-2.53,8.56-1.19,17.19,.66,25.42,3.05,13.57,5.62,27.24,8.47,40.85,2.01,9.59,4.38,19.07,7.51,28.27,4.51,13.24,7.01,26.95,10.53,40.42,1.31,5,3.85,9.44,5.16,14.42,.81,3.06,1.28,5.86,.2,8.83-3.12,8.65-2.34,17.2-.26,26.02,2.71,11.49,6.3,22.61,10.49,33.64,4.18,10.99,5.07,22.58,2.41,34.15-.68,2.94-.44,5.48,.49,8.14,3.68,10.51,4.91,21.76,9.59,31.97,.1,.21,.16,.44,.19,.67,2.11,16.6-1.2,19.3-15.58,17.96-12.53-1.17-23.78-6.09-33.57-14.2-10.02-8.31-20.05-16.62-30.29-24.66-6.32-4.96-10.71-11.62-16.31-17.2-2-2-2.55-4.59-1.51-7.12,2.24-5.4,3.08-11.05,3.62-16.79,.83-8.9,7.3-14.12,13-19.83,1.31-1.32,2.87-2.4,4.13-3.75,3.55-3.81,2.93-7.38-2-8.89-5.08-1.55-7.61-4.22-8.16-9.72-.36-3.61-3.37-6.57-5.7-9.43-4.06-4.96-5.75-10.46-5.33-16.83,.83-12.53-1.37-24.96-1.54-37.46-.02-1.62-.51-3.37-.04-4.83,2.15-6.79,.47-13.22-1.37-19.7-.96-3.37-1.64-6.83-1.35-10.35,.99-12.21-1.1-24.06-3.64-35.94-2.08-9.74-3.75-19.49-6.7-29.11-2.25-7.36-1.7-15.55-4.21-23.15-1.62-4.91-3.63-9.51-6.31-13.9-6.79-11.12-13.51-22.27-20.27-33.4-7.21-11.87-17.04-21.59-27.26-30.64-13.9-12.31-28.92-23.36-43.17-35.3-5.86-4.91-10.91-10.76-16.41-16.11-12.3-11.99-23.32-25.26-36.64-36.21-11.06-9.08-24.09-14.95-36.26-22.2-3-1.79-5.94-3.52-8.61-5.76-5.1-4.27-7.9-4.26-13.53-.56-3.02,1.98-5.84,4.45-6.87,7.68-3.26,10.15-10.66,18-14.68,27.68-.44,1.07-1.23,1.99-1.64,3.07-10.43,27.87-24.7,54.16-34.18,82.41-5.83,17.38-11.54,34.84-16.23,52.55-2.44,9.21-4.36,18.49-8.17,27.28-.91,2.1-1.49,4.39-1.29,6.8,1.26,15.14-5.62,27.48-13.71,39.36-1.31,1.92-2.79,3.74-4.25,5.55-3.64,4.53-6.71,9.19-8.42,14.99-1.49,5.03-5.2,9.37-7.05,14.34-6.62,17.8-12.02,35.97-15.93,54.59-1.1,5.22-2.23,10.44-3.22,15.68-.53,2.79-1.15,5.73-.31,8.29,1.62,4.9,1.93,9.5-.39,14.19-.35,.72-.84,1.37-.29,2.45,4.06,7.96,2.62,16.91,4.32,25.31,.75,3.7,1.9,7.16,3.51,10.54,1.55,3.26,3.13,6.26,3.41,10.31,.25,3.63,3.68,7.33,6.35,10.46,6.47,7.62,13.01,15.21,20.29,22.09,2.28,2.16,3.94,4.7,4.26,7.81,.96,9.21,7.11,15.3,12.98,21.44,2.24,2.35,5.08,4.21,6.42,7.25,3.8,8.59,9.75,15.76,15.1,23.34,1.58,2.24,3.97,4.43,2.19,7.5-1.95,3.36-5.36,4.55-8.98,4.3-3.92-.28-7.78-1.28-11.68-1.86-13.82-2.05-27.2-6.02-40.63-9.66-10.58-2.86-21.48-2.73-32.1-4.85-3.19-.64-6.44-1.01-9.63-1.67-3.03-.63-6.35-1.8-7.7-4.43-4.66-9.12-11.12-17.74-9.68-28.94,.37-2.89,1.83-5.24,3.44-7.54,2-2.86,3.66-5.73,4.16-9.41,.91-6.65-1.25-11.29-7.78-14.01-3.57-1.49-4.59-5.3-7.21-7.18-2.55-1.83-6.86,0-9.78-2.47-2.89-2.43-5.4-5.16-6.22-9.02-.24-1.13,.1-2.6-.5-3.42-5.71-7.86-5.18-16.95-5.79-25.98-.64-9.38,1.19-17.77,6.06-25.78,2.86-4.7,5.57-9.52,6.86-15.06,.94-4.05,2.61-7.95,4.16-11.83,3.78-9.49,7.47-18.95,8.68-29.24,.43-3.67,2.1-7.36,4.43-10.17,6.41-7.73,8.22-17.17,10.12-26.43,1.41-6.88,3.5-13.49,5.54-20.15,3.02-9.88,4.43-19.88,3.73-30.27-.69-10.19-.11-20.43-1.65-30.62-1.58-10.42,1.61-20.49,4.61-30.13,3.63-11.64,5.15-23.6,7.8-35.37,5.33-23.62,7.6-47.69,10.08-71.74,1.15-11.08,3.79-22.03,4.58-33.12,1.1-15.6,6.05-30.53,7.49-45.94,1.35-14.41,2.18-13.49-11.37-15.64-10.8-1.71-21.39-4.55-30.99-10.19-7.44-4.37-15.97-4.74-24.16-6.14-3.96-.68-7.69-1.7-11.33-3.29-1.91-.84-3.82-1.85-5.83-2.26-8.7-1.8-10.23-.33-11.14,8.52-.59,5.76-1.73,11.52-3.21,17.12-2.73,10.36-3.9,20.94-4.82,31.55-.41,4.73-2.1,9.06-3.24,13.55-3.49,13.79-3.68,28.08-6.76,41.92-1.86,8.38-3.54,16.81-5.08,25.25-2.04,11.16-3.94,22.34-4.82,33.68-1.24,15.96-2.78,31.9-4.26,47.85-.17,1.83-.72,3.65-1.26,5.42-.47,1.53-.97,3.2-3.12,3.17-2.47-.03-3.12-1.88-3.4-3.72-.37-2.52-.55-5.09-.51-7.64,.19-11.18,2.85-22.1,3.44-33.28,.41-7.82,.95-15.71,2-23.55,.68-5.04,.94-10.26,2.06-15.17,2.81-12.26,3.02-24.83,5.11-37.16,.63-3.72,2.21-7.11,2.83-10.77,3.75-21.96,9.15-43.59,12.97-65.55,1.39-8,2.44-16.05,3.91-24.04,1.38-7.48,.19-8.32-7.24-8.83-14.84-1.03-29.5-3.5-44.12-6.15-5.48-.99-10.95-1.96-16.37-3.35-5.36-1.38-10.84-1.28-16.52-.74-14.14,1.32-28.34,.94-42.33-2.22-4.71-1.06-8.94-2.62-11.1-7.45-.57-1.27-1.48-2.16-3.05-2.55-4.51-1.12-8.9-2.74-13.43-3.73-5.13-1.13-7.2,.47-8.3,5.63-3.94,18.41-7.9,36.81-11.82,55.22-.29,1.35-.43,2.74-.55,4.12-.79,8.77-1.97,17.4-4.1,26.05-2.88,11.68-3.6,23.86-7.23,35.44-1.11,3.55-2.09,7.15-3.45,10.6-1.87,4.72-6.96,6.45-11.52,4.18-2.96-1.47-3.73-5.41-1.46-9.83,7.88-15.36,10.24-32.27,13.61-48.84,1.95-9.58,5.38-18.73,7.12-28.36,1.98-10.94,4.27-21.84,6.73-32.7,1.53-6.77,3.79-13.4,4.51-20.37,.64-6.16,.21-7.25-5.19-9.79-1.26-.59-2.55-1.33-3.89-1.53-11.61-1.81-20.68-9.09-30.92-13.89-23.95-11.22-45.34-26.47-67.21-41.01-3.04-2.02-6.46-2.49-9.77-3.48-2-.6-3.64,.4-4.79,2.07-1.19,1.72-2.48,3.41-3.39,5.28-3.87,8.01-11.88,9.88-19.06,12.95-1.2,.52-2.99,.77-4.09,.25-5.94-2.8-8,.79-10.49,5.29-4.19,7.57-9.88,14.08-16.53,19.68-5.52,4.65-10.72,9.74-16.57,13.92-5.52,3.94-8.69,8.84-9.51,15.43-.69,5.57-2.23,10.94-4.08,16.21-2.17,6.18-3.57,12.58-3.95,19.03-.36,6.17-1.99,11.89-3.84,17.65-6.06,18.83-10.09,38.09-12.15,57.77-.19,1.85-.27,3.81-.97,5.49-5.44,13.04-2.33,26.69-2.89,40.06-.08,2.01,.72,4.12,1.43,6.07,2.19,5.99,2.24,12.22,2.89,18.47,1.22,11.77,.43,23.68,2.99,35.37,1.53,6.99,2.78,14.22,2.27,21.42-.66,9.45,2.58,17.76,8.21,24.59,7.74,9.4,11.89,20.47,16.95,31.14,3.4,7.16,6.67,14.35,11.28,20.85,3.38,4.78,5.81,10.09,7.85,15.55,2.53,6.77,5.55,12.98,10.71,18.46,6.5,6.91,11.23,15.36,18.45,21.81,2.72,2.43,3.83,6.35,4.75,9.99,2.84,11.26,5.68,22.51,8.37,33.81,.93,3.9,2.24,7.55,4.56,10.86,1.48,2.11,2.63,4.48,2.5,7.14-.22,4.35,1.86,7.57,4.76,10.45,.83,.82,1.54,1.77,2.45,2.49,9.02,7.15,12.4,16.24,12.94,27.92,.59,12.86,3.88,25.64,7.53,38.15,1.68,5.76,2.78,11.58,6.22,16.84,3.53,5.42,2.05,11.73,.82,17.7-.36,1.73-1.86,2.57-3.41,3.23-5.9,2.5-11.89,4.06-18.33,2.21-6.04-1.73-12.15-3.25-18.16-5.09-5.14-1.57-10.27-2.98-15.68-3.27-10.2-.55-17.43-7.3-25.04-12.81-2.81-2.04-5.03-4.45-8.67-5.13-2.73-.51-4.98-1.49-4.73-5.48,.19-3.06-2.09-5.93-3.84-8.58-2.46-3.71-4.31-7.69-6.04-11.77-1.85-4.36-1.72-8.09,2.31-11.17,3.96-3.03,5.2-6.66,2.9-11.45-1.97-4.09-.28-7.6,2.45-10.87,3.13-3.74,6.18-7.56,8.98-11.55,1.43-2.03,2.77-4.51-.64-6.39-.7-.39-1.51-1.59-1.4-2.29,.7-4.58-3.55-6.69-4.85-10.2-1.55-4.19-5.03-6.57-8.07-9.43-2.09-1.97-3.38-4.52-3.49-7.43-.19-5.23-1.76-10.02-4.01-14.68-1.12-2.32-1.99-4.8-1.69-7.41,1.66-14.23-4.44-26.76-8.23-39.89-4.38-15.2-12.79-28.31-19.54-42.31-7.43-15.41-16.64-29.54-26.23-43.57-3.38-4.94-7.74-8.65-12.23-12.31-3.36-2.74-5.82-5.8-6.74-10.22-.81-3.85-2.53-7.46-4.41-10.96-2.53-4.72-5.47-9.44-6.31-14.7-1.23-7.7-5.11-13.7-9.76-19.63-2.81-3.59-5.67-6.56-10.04-8.2-5.54-2.07-8.37-6.12-8.48-12.31-.14-7.42-3.57-14.47-2.88-22.05,.08-.91-.29-1.89-1.36-2.17-1-.26-1.84,.16-2.38,.99-1.42,2.13-2.95,4.21-4.13,6.46-8.55,16.33-18.25,31.92-30.04,46.12-6.08,7.32-7.33,16.27-9.7,25.02-5.12,18.93-7.38,38.33-9.09,57.68-1.95,22.14-6.53,44.19-4.56,66.55,.84,9.53,.02,19.23,1.6,28.49,2.29,13.4,6.07,26.53,17.45,36.1,4.55,3.83,9.3,7.68,13.22,12.34,3.63,4.31,7.01,8.57,8.08,14.36,.73,3.96,3.36,7.15,5.78,10.23,4.9,6.24,9.02,12.97,13.09,19.76,1.93,3.22,4.47,5.93,6.96,8.71,4.46,4.97,3.79,11.04-1.34,15.17-3.3,2.65-6.98,4.58-10.9,6.17-10.12,4.1-20.22,8.28-30.27,12.55-3.26,1.39-6.47,1.19-9.51-.08-9.84-4.09-19.87-7.67-28.27-14.76-5.49-4.63-11.15-9.13-17.23-13.08-4.71-3.06-9.19-6.96-5.91-13.79-3.27-11.01,3.49-19.68,6.89-29.09,2.05-5.68,2.35-5.79-3.76-7.08-4.43-.94-7.65-4.13-8.35-7.58-1.15-5.71-4.62-7.22-9.23-8.75-13.05-4.32-16.94-11.41-14.12-25.16,.61-2.96,.66-5.78,.33-8.84-.76-7.16-.41-14.38,.28-21.6,.76-7.86-2.3-11.61-8.39-11.79-3.23-.1-4.94,1.82-6.61,4.68-2.98-4.53-5.15-8.23-5.54-13.54-.45-6.1-3.22-12.05-5.12-18.01-.97-3.04-2.94-4.46-5.59-1.74-2.88,2.96-4.42,1.13-5.85-1.28-.82-1.39-1.79-2.95-1.86-4.47-.27-5.87-2.69-10.91-5.18-16.07-1.83-3.8-3.4-7.47-7.09-10-3.74-2.57-4.23-7.07-5.26-11.07-1.91-7.39-3.63-14.78-7.76-21.4-1.72-2.76-3.81-4.46-6.81-5.55-9.62-3.48-11.67-6.9-10.41-17.29,.53-4.37,1.35-8.63,1.2-13.14-.22-6.85-1.37-13.39-3.69-19.78-.88-2.41-1.66-4.84-1.41-7.48,1.1-11.35-.45-22.76,.84-34.1,.27-2.36,.19-4.62-.49-6.9-1.03-3.44-.99-6.88,.1-10.32,2.18-6.82,1.77-13.74,.89-20.72-1.03-8.13,1.3-16.15,.69-24.35-1.12-15.29,2.28-30.48,1.1-45.94-.63-8.23,.24-16.93,1.89-25.46,2.36-12.24,3.94-24.74,4.11-37.32,.05-3.95,.27-7.91,.62-11.85,.46-5.13,.43-10.1-.93-15.21-1.93-7.25-1.15-14.87-1-22.24,.22-10.37,.92-20.79,2.46-31.12,.73-4.9,2.1-9.56,3.7-14.15,3.06-8.78,5.08-17.86,7.76-26.74,2.46-8.15,3.45-16.88,4.08-25.42,.74-10.02,2.64-19.79,4.61-29.56,1.89-9.35,2.02-18.96,4.57-28.19,.9-3.26-.11-6.42-.99-9.6-1.54-5.55-1.47-11.11,1.35-16.3,6.78-12.48,11.32-26,18.36-38.38,7.69-13.54,14.75-27.41,23.45-40.39,4.79-7.14,9.53-14.28,14.52-21.29,5.03-7.07,10.51-13.55,16.82-19.51,4.96-4.69,10.17-8.79,16.12-12.08,5.5-3.05,10.73-6.55,15.55-10.62,3.94-3.32,8.37-5.76,13.06-7.94,10.5-4.87,20.73-10.1,29.74-17.73,13.16-11.15,27.56-20.32,44.25-25.8,19.25-6.32,37.54-15.14,56.13-23.15,2.78-1.2,5.58-2.35,8.41-3.41,7.81-2.94,15.46-5.96,22.75-10.31,9.64-5.75,20.92-7.58,31.92-9.63,5.02-.94,10.06-1.79,15.12-2.47,5.34-.72,10.72-.96,15.9,.91,8.65,3.12,17.19,3.4,26.46,2.17,9.43-1.24,19.04-2.44,28.91-1.13,10.03,1.33,20.32,.69,30.43-2.13,10.95-3.05,22.23-4.92,33.33-7.45,7.68-1.75,8.33-2.65,8.35-10.39,.01-5.1-.4-10.09-1.45-15.19-1.3-6.3-.19-12.92,.8-19.34,.1-.67,.33-1.48,.79-1.91,7.04-6.41,7.18-14.82,6.96-23.39-.13-5.13,3.16-8.69,6.31-12.07,2.45-2.62,5.18-1.16,7.4,.81,4.1,3.63,6.93,8.19,8.68,13.33,1.27,3.76,3.17,6.66,7.17,7.84,3.44,1.02,4.63,4.43,6.87,6.72,4.64,4.72,6.26,4.71,10.68-.2,2.39-2.66,4.15-5.57,4.26-9.31,.09-2.94-.31-5.34-3.14-7.18-3.12-2.03-5.62-4.9-7.58-8.11-3.89-6.39-8.52-12.19-13.54-17.75-4.87-5.4-4.74-7.8,.33-13.08,4.72-4.91,9.53-9.68,8.99-17.35-1.31-1.11-2.58-.04-3.87,.17-3.08,.48-3.59-1.33-3.28-3.75,.09-.66,.51-1.3,.88-1.89,5.04-8.07,4.08-16.45,1.28-24.91-5.19-15.65-8.12-31.9-6.51-48.14,1.19-12.04-.22-23.54-1.27-35.28-.45-5.06-1.35-11.26,1.48-14.97,2.87-3.76,3.59-7.78,5.18-11.68,1.16-2.84,1.15-5.94-.83-8.67l.15,.14ZM109.18,1148.25c0,7.12-.03,12.48,.02,17.84,.02,2.16,.33,4.46,2.85,5.02,2.87,.63,4.19-1.54,5.07-3.78,.76-1.94,1.18-4.02,1.83-6.01,3.46-10.48,.45-20.78-1.12-31.04-1.21-7.93,.78-14.61,6.96-19.29,10.36-7.86,17.01-18.93,25.69-28.24,1.51-1.62,2.65-3.72,3.57-5.92,3.05-7.33,6.63-14.36,13.56-18.98,1.47-.98,2.68-2,2.97-4.28,.8-6.38,3.81-12.22,6.39-17.93,3.42-7.56,7.62-14.88,12.4-21.79,3.33-4.81,5.66-10.13,7.32-15.76,4.94-16.7,4.22-32.15-6.92-46.84-13.91-18.35-24.89-38.71-37.66-57.86-2.67-4.01-3.54-8.39-3.18-13.76,.4-5.98,2.28-14.3-7.16-16.91-1.02-.28-1.86-1.37-2.69-2.18-7.48-7.21-12.14-16.06-14.73-26.01-1.43-5.48-3.45-7.98-7.44-7.25-6.53,1.19-12.42,2.35-12.24,9.5,.13,5.38,.29,10.74,1.87,15.89,.79,2.56,.91,4.88,.22,7.48-.7,2.67-.68,5.53-1.12,8.28-1.48,9.41-.65,18.97-2.25,28.44-1.78,10.51-4.43,20.94-4.06,31.79,.37,10.68,.98,21.32,2.29,31.93,1.12,9.1,1.59,18.89-1.7,26.94-3.76,9.19,1.12,17.96-1.93,26.53,2.42,12.68,1.22,25.48,1.01,38.22-.19,12.07-1.05,24.16,1.3,36.11,1.29,6.58,2.61,13.17,4.48,19.6,1.74,5.98-.15,12.44,1.8,17.94,2.84,8.02,2.18,16.03,2.6,22.33Zm1206.49-447.25c.07-3.97-2.73-6.46-5.35-8.51-6.87-5.35-13.63-10.6-22.13-13.85-23.69-9.04-46.43-20.33-69.43-31.01-6.83-3.18-8.23-2.89-11.52,3.76-5.27,10.65-11.96,20.48-17.44,31-3.37,6.46-3.51,7.06,2.93,10.94,7.96,4.81,16.45,8.78,24.28,13.77,20.47,13.05,42.24,23.49,64.76,32.33,15.35,6.03,31.64,9.07,47.43,13.75,4.61,1.37,7.18-.63,7.39-5.49,.54-12.45-5.53-21.85-14.84-29.07-3.64-2.82-5.65-5.93-6.83-10.01-.76-2.62,.77-5.02,.77-7.61Zm-416.56-195.07c-2.18-4.2-5.25-6.71-8.16-9.37-15.28-13.97-31.74-26.61-46.3-41.38-5.61-5.69-11.92-10.28-18.93-14.09-8.78-4.78-17.42-9.82-26.06-14.86-7.39-4.31-15.21-7.98-20.75-14.98-2.25-2.85-5.57-4.52-9.74-4.45-1.6,10.6,3.42,20.19,3.1,30.44-.22,6.96,.88,6.99,8.02,8.65,.9,.21,1.8,.49,2.65,.87,6.36,2.81,12.99,4.36,19.89,5.32,7.48,1.04,14.32,3.93,19.77,9.54,6.62,6.82,13.12,13.76,20.75,19.52,6.54,4.94,12.28,10.59,16.64,17.64,2.07,3.34,4.73,6.33,7.21,9.41,1.49,1.86,3.4,3.74,5.9,2.86,6.11-2.14,12.31-1.74,18.53-1.29,3.22,.23,4.8-2.33,7.47-3.83Zm-476.67,31.79s0,.05,0,.08c-6.28,0-12.56-.02-18.84,.02-.85,0-1.94-.11-2.19,1.12-.26,1.27,.12,2.31,1.4,2.78,1.31,.47,2.64,.87,3.98,1.24,8.76,2.42,17.01,6.11,25.38,9.58,13.68,5.68,26.76,12.88,41.49,16.08,4.63,1,6.33,.1,7.4-3.97,.99-3.75,2.79-7.16,6.76-8.23,9.86-2.67,18.68-8.32,28.8-10.05,3.26-.56,3.81-2.18,3.31-4.68-.87-4.32-2.02-8.58-3.02-12.87-.82-3.52-2.98-3.94-6.26-3.41-11.87,1.93-23.83,3.29-35.65,5.44-10.37,1.88-21.32,.74-31.08,6.08-1.87,1.02-4.55,.71-6.86,.76-4.88,.1-9.76,.03-14.65,.03Zm861.57,126.08c2.11,.46,2.6-1.85,2.19-4.8-.29-2.06-1.3-4.16-1.07-6.13,.64-5.5-2.88-7.3-7.02-8.71-1.75-.6-3.55-1.17-5.37-1.44-11.74-1.76-22.92-5.54-34.11-9.3-4.84-1.62-9.71-3.15-14.6-4.58-1.58-.46-3.49-.44-4.3,1.31-.88,1.9-1.23,4.12,.5,5.82,.97,.95,2.25,1.63,3.49,2.22,14.21,6.8,28.39,13.67,42.68,20.29,5.02,2.33,10.2,4.45,17.6,5.32Zm-19.46-35.22c3.52,.17,4.56-1.2,2.93-4.12-1.24-2.21-2.65-4.53-4.56-6.11-5.93-4.9-9.16-11.57-12.64-18.11-.65-1.22-1.26-2.51-2.1-3.59-2.91-3.74-5.57-4.01-8.38-.27-3.75,5-7.11,10.32-10.42,15.63-1.64,2.64-1.71,4.77,2.12,6.18,10.25,3.75,20.67,6.93,31.12,10.04,.66,.2,1.37,.26,1.93,.36Zm-799.01-102.93c.09,.68,.17,1.37,.26,2.05,4.22,.47,8.45,.19,12.68-.58,3.85-.7,7.61-1.94,11.63-1.6,5.26,.46,9.87-2.19,14.75-3.49,1.26-.34,2.58-1.04,1.67-2.98-.61-1.3-.93-2.6-2.8-2.35-.91,.12-1.89-.11-2.77,.11-11.82,2.92-23.62,5.88-35.43,8.84Zm42.65-52.69c-.37,1.12-.68,1.71-.74,2.33-.03,.36,.34,.76,.52,1.14,.23-.35,.63-.7,.64-1.06,.02-.62-.2-1.25-.43-2.4Z" style="fill:#fff;"/><path d="M541.94,239.44c.11,.87,.23,1.73,.32,2.6,0,.01-.47,.13-.5,.08-.46-.91,.06-1.71,.33-2.54l-.15-.14Z" style="fill:#fff;"/></svg>